%TF.GenerationSoftware,KiCad,Pcbnew,8.0.6*%
%TF.CreationDate,2025-03-25T13:24:27+01:00*%
%TF.ProjectId,MCU Datalogger,4d435520-4461-4746-916c-6f676765722e,1*%
%TF.SameCoordinates,Original*%
%TF.FileFunction,Legend,Top*%
%TF.FilePolarity,Positive*%
%FSLAX46Y46*%
G04 Gerber Fmt 4.6, Leading zero omitted, Abs format (unit mm)*
G04 Created by KiCad (PCBNEW 8.0.6) date 2025-03-25 13:24:27*
%MOMM*%
%LPD*%
G01*
G04 APERTURE LIST*
%ADD10C,0.100000*%
%ADD11C,0.050000*%
%ADD12C,0.150000*%
%ADD13C,0.125000*%
%ADD14C,0.120000*%
%ADD15C,0.200000*%
%ADD16C,0.127000*%
G04 APERTURE END LIST*
D10*
X110166836Y-123949133D02*
X110547789Y-123949133D01*
X110357312Y-124139609D02*
X110357312Y-123758657D01*
D11*
X106100304Y-130237391D02*
X106124114Y-130165963D01*
X106124114Y-130165963D02*
X106147923Y-130142153D01*
X106147923Y-130142153D02*
X106195542Y-130118344D01*
X106195542Y-130118344D02*
X106266971Y-130118344D01*
X106266971Y-130118344D02*
X106314590Y-130142153D01*
X106314590Y-130142153D02*
X106338400Y-130165963D01*
X106338400Y-130165963D02*
X106362209Y-130213582D01*
X106362209Y-130213582D02*
X106362209Y-130404058D01*
X106362209Y-130404058D02*
X105862209Y-130404058D01*
X105862209Y-130404058D02*
X105862209Y-130237391D01*
X105862209Y-130237391D02*
X105886019Y-130189772D01*
X105886019Y-130189772D02*
X105909828Y-130165963D01*
X105909828Y-130165963D02*
X105957447Y-130142153D01*
X105957447Y-130142153D02*
X106005066Y-130142153D01*
X106005066Y-130142153D02*
X106052685Y-130165963D01*
X106052685Y-130165963D02*
X106076495Y-130189772D01*
X106076495Y-130189772D02*
X106100304Y-130237391D01*
X106100304Y-130237391D02*
X106100304Y-130404058D01*
X105862209Y-129975486D02*
X105862209Y-129689772D01*
X106362209Y-129832629D02*
X105862209Y-129832629D01*
X106362209Y-129261201D02*
X106362209Y-129546915D01*
X106362209Y-129404058D02*
X105862209Y-129404058D01*
X105862209Y-129404058D02*
X105933638Y-129451677D01*
X105933638Y-129451677D02*
X105981257Y-129499296D01*
X105981257Y-129499296D02*
X106005066Y-129546915D01*
X106171733Y-129046916D02*
X106171733Y-128665964D01*
X106362209Y-128856440D02*
X105981257Y-128856440D01*
X106171733Y-128427868D02*
X106171733Y-128046916D01*
X105886019Y-132682153D02*
X105862209Y-132729772D01*
X105862209Y-132729772D02*
X105862209Y-132801201D01*
X105862209Y-132801201D02*
X105886019Y-132872629D01*
X105886019Y-132872629D02*
X105933638Y-132920248D01*
X105933638Y-132920248D02*
X105981257Y-132944058D01*
X105981257Y-132944058D02*
X106076495Y-132967867D01*
X106076495Y-132967867D02*
X106147923Y-132967867D01*
X106147923Y-132967867D02*
X106243161Y-132944058D01*
X106243161Y-132944058D02*
X106290780Y-132920248D01*
X106290780Y-132920248D02*
X106338400Y-132872629D01*
X106338400Y-132872629D02*
X106362209Y-132801201D01*
X106362209Y-132801201D02*
X106362209Y-132753582D01*
X106362209Y-132753582D02*
X106338400Y-132682153D01*
X106338400Y-132682153D02*
X106314590Y-132658344D01*
X106314590Y-132658344D02*
X106147923Y-132658344D01*
X106147923Y-132658344D02*
X106147923Y-132753582D01*
X106362209Y-132444058D02*
X105862209Y-132444058D01*
X105862209Y-132444058D02*
X106362209Y-132158344D01*
X106362209Y-132158344D02*
X105862209Y-132158344D01*
X106362209Y-131920248D02*
X105862209Y-131920248D01*
X105862209Y-131920248D02*
X105862209Y-131801200D01*
X105862209Y-131801200D02*
X105886019Y-131729772D01*
X105886019Y-131729772D02*
X105933638Y-131682153D01*
X105933638Y-131682153D02*
X105981257Y-131658343D01*
X105981257Y-131658343D02*
X106076495Y-131634534D01*
X106076495Y-131634534D02*
X106147923Y-131634534D01*
X106147923Y-131634534D02*
X106243161Y-131658343D01*
X106243161Y-131658343D02*
X106290780Y-131682153D01*
X106290780Y-131682153D02*
X106338400Y-131729772D01*
X106338400Y-131729772D02*
X106362209Y-131801200D01*
X106362209Y-131801200D02*
X106362209Y-131920248D01*
D10*
X141900836Y-122735133D02*
X142281789Y-122735133D01*
X142091312Y-122925609D02*
X142091312Y-122544657D01*
X139215836Y-122735133D02*
X139596789Y-122735133D01*
X145726836Y-122679133D02*
X146107789Y-122679133D01*
X142932836Y-122679133D02*
X143313789Y-122679133D01*
X143123312Y-122869609D02*
X143123312Y-122488657D01*
D11*
X153614209Y-129205486D02*
X154114209Y-129038820D01*
X154114209Y-129038820D02*
X153614209Y-128872153D01*
X154090400Y-128491201D02*
X154114209Y-128538820D01*
X154114209Y-128538820D02*
X154114209Y-128634058D01*
X154114209Y-128634058D02*
X154090400Y-128681677D01*
X154090400Y-128681677D02*
X154066590Y-128705487D01*
X154066590Y-128705487D02*
X154018971Y-128729296D01*
X154018971Y-128729296D02*
X153876114Y-128729296D01*
X153876114Y-128729296D02*
X153828495Y-128705487D01*
X153828495Y-128705487D02*
X153804685Y-128681677D01*
X153804685Y-128681677D02*
X153780876Y-128634058D01*
X153780876Y-128634058D02*
X153780876Y-128538820D01*
X153780876Y-128538820D02*
X153804685Y-128491201D01*
X154090400Y-128062630D02*
X154114209Y-128110249D01*
X154114209Y-128110249D02*
X154114209Y-128205487D01*
X154114209Y-128205487D02*
X154090400Y-128253106D01*
X154090400Y-128253106D02*
X154066590Y-128276916D01*
X154066590Y-128276916D02*
X154018971Y-128300725D01*
X154018971Y-128300725D02*
X153876114Y-128300725D01*
X153876114Y-128300725D02*
X153828495Y-128276916D01*
X153828495Y-128276916D02*
X153804685Y-128253106D01*
X153804685Y-128253106D02*
X153780876Y-128205487D01*
X153780876Y-128205487D02*
X153780876Y-128110249D01*
X153780876Y-128110249D02*
X153804685Y-128062630D01*
X154114209Y-131928058D02*
X153614209Y-131928058D01*
X153614209Y-131928058D02*
X153971352Y-131761391D01*
X153971352Y-131761391D02*
X153614209Y-131594725D01*
X153614209Y-131594725D02*
X154114209Y-131594725D01*
X153614209Y-131261391D02*
X153614209Y-131166153D01*
X153614209Y-131166153D02*
X153638019Y-131118534D01*
X153638019Y-131118534D02*
X153685638Y-131070915D01*
X153685638Y-131070915D02*
X153780876Y-131047105D01*
X153780876Y-131047105D02*
X153947542Y-131047105D01*
X153947542Y-131047105D02*
X154042780Y-131070915D01*
X154042780Y-131070915D02*
X154090400Y-131118534D01*
X154090400Y-131118534D02*
X154114209Y-131166153D01*
X154114209Y-131166153D02*
X154114209Y-131261391D01*
X154114209Y-131261391D02*
X154090400Y-131309010D01*
X154090400Y-131309010D02*
X154042780Y-131356629D01*
X154042780Y-131356629D02*
X153947542Y-131380438D01*
X153947542Y-131380438D02*
X153780876Y-131380438D01*
X153780876Y-131380438D02*
X153685638Y-131356629D01*
X153685638Y-131356629D02*
X153638019Y-131309010D01*
X153638019Y-131309010D02*
X153614209Y-131261391D01*
X154090400Y-130856628D02*
X154114209Y-130785200D01*
X154114209Y-130785200D02*
X154114209Y-130666152D01*
X154114209Y-130666152D02*
X154090400Y-130618533D01*
X154090400Y-130618533D02*
X154066590Y-130594724D01*
X154066590Y-130594724D02*
X154018971Y-130570914D01*
X154018971Y-130570914D02*
X153971352Y-130570914D01*
X153971352Y-130570914D02*
X153923733Y-130594724D01*
X153923733Y-130594724D02*
X153899923Y-130618533D01*
X153899923Y-130618533D02*
X153876114Y-130666152D01*
X153876114Y-130666152D02*
X153852304Y-130761390D01*
X153852304Y-130761390D02*
X153828495Y-130809009D01*
X153828495Y-130809009D02*
X153804685Y-130832819D01*
X153804685Y-130832819D02*
X153757066Y-130856628D01*
X153757066Y-130856628D02*
X153709447Y-130856628D01*
X153709447Y-130856628D02*
X153661828Y-130832819D01*
X153661828Y-130832819D02*
X153638019Y-130809009D01*
X153638019Y-130809009D02*
X153614209Y-130761390D01*
X153614209Y-130761390D02*
X153614209Y-130642343D01*
X153614209Y-130642343D02*
X153638019Y-130570914D01*
X154114209Y-130356629D02*
X153614209Y-130356629D01*
X153638019Y-134206153D02*
X153614209Y-134253772D01*
X153614209Y-134253772D02*
X153614209Y-134325201D01*
X153614209Y-134325201D02*
X153638019Y-134396629D01*
X153638019Y-134396629D02*
X153685638Y-134444248D01*
X153685638Y-134444248D02*
X153733257Y-134468058D01*
X153733257Y-134468058D02*
X153828495Y-134491867D01*
X153828495Y-134491867D02*
X153899923Y-134491867D01*
X153899923Y-134491867D02*
X153995161Y-134468058D01*
X153995161Y-134468058D02*
X154042780Y-134444248D01*
X154042780Y-134444248D02*
X154090400Y-134396629D01*
X154090400Y-134396629D02*
X154114209Y-134325201D01*
X154114209Y-134325201D02*
X154114209Y-134277582D01*
X154114209Y-134277582D02*
X154090400Y-134206153D01*
X154090400Y-134206153D02*
X154066590Y-134182344D01*
X154066590Y-134182344D02*
X153899923Y-134182344D01*
X153899923Y-134182344D02*
X153899923Y-134277582D01*
X154114209Y-133968058D02*
X153614209Y-133968058D01*
X153614209Y-133968058D02*
X154114209Y-133682344D01*
X154114209Y-133682344D02*
X153614209Y-133682344D01*
X154114209Y-133444248D02*
X153614209Y-133444248D01*
X153614209Y-133444248D02*
X153614209Y-133325200D01*
X153614209Y-133325200D02*
X153638019Y-133253772D01*
X153638019Y-133253772D02*
X153685638Y-133206153D01*
X153685638Y-133206153D02*
X153733257Y-133182343D01*
X153733257Y-133182343D02*
X153828495Y-133158534D01*
X153828495Y-133158534D02*
X153899923Y-133158534D01*
X153899923Y-133158534D02*
X153995161Y-133182343D01*
X153995161Y-133182343D02*
X154042780Y-133206153D01*
X154042780Y-133206153D02*
X154090400Y-133253772D01*
X154090400Y-133253772D02*
X154114209Y-133325200D01*
X154114209Y-133325200D02*
X154114209Y-133444248D01*
X148018209Y-129388058D02*
X147518209Y-129388058D01*
X147518209Y-129388058D02*
X147875352Y-129221391D01*
X147875352Y-129221391D02*
X147518209Y-129054725D01*
X147518209Y-129054725D02*
X148018209Y-129054725D01*
X148018209Y-128816629D02*
X147518209Y-128816629D01*
X147994400Y-128602343D02*
X148018209Y-128530915D01*
X148018209Y-128530915D02*
X148018209Y-128411867D01*
X148018209Y-128411867D02*
X147994400Y-128364248D01*
X147994400Y-128364248D02*
X147970590Y-128340439D01*
X147970590Y-128340439D02*
X147922971Y-128316629D01*
X147922971Y-128316629D02*
X147875352Y-128316629D01*
X147875352Y-128316629D02*
X147827733Y-128340439D01*
X147827733Y-128340439D02*
X147803923Y-128364248D01*
X147803923Y-128364248D02*
X147780114Y-128411867D01*
X147780114Y-128411867D02*
X147756304Y-128507105D01*
X147756304Y-128507105D02*
X147732495Y-128554724D01*
X147732495Y-128554724D02*
X147708685Y-128578534D01*
X147708685Y-128578534D02*
X147661066Y-128602343D01*
X147661066Y-128602343D02*
X147613447Y-128602343D01*
X147613447Y-128602343D02*
X147565828Y-128578534D01*
X147565828Y-128578534D02*
X147542019Y-128554724D01*
X147542019Y-128554724D02*
X147518209Y-128507105D01*
X147518209Y-128507105D02*
X147518209Y-128388058D01*
X147518209Y-128388058D02*
X147542019Y-128316629D01*
X147518209Y-128007106D02*
X147518209Y-127911868D01*
X147518209Y-127911868D02*
X147542019Y-127864249D01*
X147542019Y-127864249D02*
X147589638Y-127816630D01*
X147589638Y-127816630D02*
X147684876Y-127792820D01*
X147684876Y-127792820D02*
X147851542Y-127792820D01*
X147851542Y-127792820D02*
X147946780Y-127816630D01*
X147946780Y-127816630D02*
X147994400Y-127864249D01*
X147994400Y-127864249D02*
X148018209Y-127911868D01*
X148018209Y-127911868D02*
X148018209Y-128007106D01*
X148018209Y-128007106D02*
X147994400Y-128054725D01*
X147994400Y-128054725D02*
X147946780Y-128102344D01*
X147946780Y-128102344D02*
X147851542Y-128126153D01*
X147851542Y-128126153D02*
X147684876Y-128126153D01*
X147684876Y-128126153D02*
X147589638Y-128102344D01*
X147589638Y-128102344D02*
X147542019Y-128054725D01*
X147542019Y-128054725D02*
X147518209Y-128007106D01*
X147994400Y-131697867D02*
X148018209Y-131626439D01*
X148018209Y-131626439D02*
X148018209Y-131507391D01*
X148018209Y-131507391D02*
X147994400Y-131459772D01*
X147994400Y-131459772D02*
X147970590Y-131435963D01*
X147970590Y-131435963D02*
X147922971Y-131412153D01*
X147922971Y-131412153D02*
X147875352Y-131412153D01*
X147875352Y-131412153D02*
X147827733Y-131435963D01*
X147827733Y-131435963D02*
X147803923Y-131459772D01*
X147803923Y-131459772D02*
X147780114Y-131507391D01*
X147780114Y-131507391D02*
X147756304Y-131602629D01*
X147756304Y-131602629D02*
X147732495Y-131650248D01*
X147732495Y-131650248D02*
X147708685Y-131674058D01*
X147708685Y-131674058D02*
X147661066Y-131697867D01*
X147661066Y-131697867D02*
X147613447Y-131697867D01*
X147613447Y-131697867D02*
X147565828Y-131674058D01*
X147565828Y-131674058D02*
X147542019Y-131650248D01*
X147542019Y-131650248D02*
X147518209Y-131602629D01*
X147518209Y-131602629D02*
X147518209Y-131483582D01*
X147518209Y-131483582D02*
X147542019Y-131412153D01*
X147970590Y-130912154D02*
X147994400Y-130935963D01*
X147994400Y-130935963D02*
X148018209Y-131007392D01*
X148018209Y-131007392D02*
X148018209Y-131055011D01*
X148018209Y-131055011D02*
X147994400Y-131126439D01*
X147994400Y-131126439D02*
X147946780Y-131174058D01*
X147946780Y-131174058D02*
X147899161Y-131197868D01*
X147899161Y-131197868D02*
X147803923Y-131221677D01*
X147803923Y-131221677D02*
X147732495Y-131221677D01*
X147732495Y-131221677D02*
X147637257Y-131197868D01*
X147637257Y-131197868D02*
X147589638Y-131174058D01*
X147589638Y-131174058D02*
X147542019Y-131126439D01*
X147542019Y-131126439D02*
X147518209Y-131055011D01*
X147518209Y-131055011D02*
X147518209Y-131007392D01*
X147518209Y-131007392D02*
X147542019Y-130935963D01*
X147542019Y-130935963D02*
X147565828Y-130912154D01*
X148018209Y-130459773D02*
X148018209Y-130697868D01*
X148018209Y-130697868D02*
X147518209Y-130697868D01*
X148018209Y-134436344D02*
X147780114Y-134603010D01*
X148018209Y-134722058D02*
X147518209Y-134722058D01*
X147518209Y-134722058D02*
X147518209Y-134531582D01*
X147518209Y-134531582D02*
X147542019Y-134483963D01*
X147542019Y-134483963D02*
X147565828Y-134460153D01*
X147565828Y-134460153D02*
X147613447Y-134436344D01*
X147613447Y-134436344D02*
X147684876Y-134436344D01*
X147684876Y-134436344D02*
X147732495Y-134460153D01*
X147732495Y-134460153D02*
X147756304Y-134483963D01*
X147756304Y-134483963D02*
X147780114Y-134531582D01*
X147780114Y-134531582D02*
X147780114Y-134722058D01*
X147756304Y-134222058D02*
X147756304Y-134055391D01*
X148018209Y-133983963D02*
X148018209Y-134222058D01*
X148018209Y-134222058D02*
X147518209Y-134222058D01*
X147518209Y-134222058D02*
X147518209Y-133983963D01*
X147994400Y-133793486D02*
X148018209Y-133722058D01*
X148018209Y-133722058D02*
X148018209Y-133603010D01*
X148018209Y-133603010D02*
X147994400Y-133555391D01*
X147994400Y-133555391D02*
X147970590Y-133531582D01*
X147970590Y-133531582D02*
X147922971Y-133507772D01*
X147922971Y-133507772D02*
X147875352Y-133507772D01*
X147875352Y-133507772D02*
X147827733Y-133531582D01*
X147827733Y-133531582D02*
X147803923Y-133555391D01*
X147803923Y-133555391D02*
X147780114Y-133603010D01*
X147780114Y-133603010D02*
X147756304Y-133698248D01*
X147756304Y-133698248D02*
X147732495Y-133745867D01*
X147732495Y-133745867D02*
X147708685Y-133769677D01*
X147708685Y-133769677D02*
X147661066Y-133793486D01*
X147661066Y-133793486D02*
X147613447Y-133793486D01*
X147613447Y-133793486D02*
X147565828Y-133769677D01*
X147565828Y-133769677D02*
X147542019Y-133745867D01*
X147542019Y-133745867D02*
X147518209Y-133698248D01*
X147518209Y-133698248D02*
X147518209Y-133579201D01*
X147518209Y-133579201D02*
X147542019Y-133507772D01*
X147756304Y-133293487D02*
X147756304Y-133126820D01*
X148018209Y-133055392D02*
X148018209Y-133293487D01*
X148018209Y-133293487D02*
X147518209Y-133293487D01*
X147518209Y-133293487D02*
X147518209Y-133055392D01*
X147518209Y-132912534D02*
X147518209Y-132626820D01*
X148018209Y-132769677D02*
X147518209Y-132769677D01*
X150082019Y-137762153D02*
X150058209Y-137809772D01*
X150058209Y-137809772D02*
X150058209Y-137881201D01*
X150058209Y-137881201D02*
X150082019Y-137952629D01*
X150082019Y-137952629D02*
X150129638Y-138000248D01*
X150129638Y-138000248D02*
X150177257Y-138024058D01*
X150177257Y-138024058D02*
X150272495Y-138047867D01*
X150272495Y-138047867D02*
X150343923Y-138047867D01*
X150343923Y-138047867D02*
X150439161Y-138024058D01*
X150439161Y-138024058D02*
X150486780Y-138000248D01*
X150486780Y-138000248D02*
X150534400Y-137952629D01*
X150534400Y-137952629D02*
X150558209Y-137881201D01*
X150558209Y-137881201D02*
X150558209Y-137833582D01*
X150558209Y-137833582D02*
X150534400Y-137762153D01*
X150534400Y-137762153D02*
X150510590Y-137738344D01*
X150510590Y-137738344D02*
X150343923Y-137738344D01*
X150343923Y-137738344D02*
X150343923Y-137833582D01*
X150558209Y-137524058D02*
X150058209Y-137524058D01*
X150058209Y-137524058D02*
X150558209Y-137238344D01*
X150558209Y-137238344D02*
X150058209Y-137238344D01*
X150558209Y-137000248D02*
X150058209Y-137000248D01*
X150058209Y-137000248D02*
X150058209Y-136881200D01*
X150058209Y-136881200D02*
X150082019Y-136809772D01*
X150082019Y-136809772D02*
X150129638Y-136762153D01*
X150129638Y-136762153D02*
X150177257Y-136738343D01*
X150177257Y-136738343D02*
X150272495Y-136714534D01*
X150272495Y-136714534D02*
X150343923Y-136714534D01*
X150343923Y-136714534D02*
X150439161Y-136738343D01*
X150439161Y-136738343D02*
X150486780Y-136762153D01*
X150486780Y-136762153D02*
X150534400Y-136809772D01*
X150534400Y-136809772D02*
X150558209Y-136881200D01*
X150558209Y-136881200D02*
X150558209Y-137000248D01*
X150058209Y-140635486D02*
X150558209Y-140468820D01*
X150558209Y-140468820D02*
X150058209Y-140302153D01*
X150534400Y-139921201D02*
X150558209Y-139968820D01*
X150558209Y-139968820D02*
X150558209Y-140064058D01*
X150558209Y-140064058D02*
X150534400Y-140111677D01*
X150534400Y-140111677D02*
X150510590Y-140135487D01*
X150510590Y-140135487D02*
X150462971Y-140159296D01*
X150462971Y-140159296D02*
X150320114Y-140159296D01*
X150320114Y-140159296D02*
X150272495Y-140135487D01*
X150272495Y-140135487D02*
X150248685Y-140111677D01*
X150248685Y-140111677D02*
X150224876Y-140064058D01*
X150224876Y-140064058D02*
X150224876Y-139968820D01*
X150224876Y-139968820D02*
X150248685Y-139921201D01*
X150534400Y-139492630D02*
X150558209Y-139540249D01*
X150558209Y-139540249D02*
X150558209Y-139635487D01*
X150558209Y-139635487D02*
X150534400Y-139683106D01*
X150534400Y-139683106D02*
X150510590Y-139706916D01*
X150510590Y-139706916D02*
X150462971Y-139730725D01*
X150462971Y-139730725D02*
X150320114Y-139730725D01*
X150320114Y-139730725D02*
X150272495Y-139706916D01*
X150272495Y-139706916D02*
X150248685Y-139683106D01*
X150248685Y-139683106D02*
X150224876Y-139635487D01*
X150224876Y-139635487D02*
X150224876Y-139540249D01*
X150224876Y-139540249D02*
X150248685Y-139492630D01*
X150534400Y-143127867D02*
X150558209Y-143056439D01*
X150558209Y-143056439D02*
X150558209Y-142937391D01*
X150558209Y-142937391D02*
X150534400Y-142889772D01*
X150534400Y-142889772D02*
X150510590Y-142865963D01*
X150510590Y-142865963D02*
X150462971Y-142842153D01*
X150462971Y-142842153D02*
X150415352Y-142842153D01*
X150415352Y-142842153D02*
X150367733Y-142865963D01*
X150367733Y-142865963D02*
X150343923Y-142889772D01*
X150343923Y-142889772D02*
X150320114Y-142937391D01*
X150320114Y-142937391D02*
X150296304Y-143032629D01*
X150296304Y-143032629D02*
X150272495Y-143080248D01*
X150272495Y-143080248D02*
X150248685Y-143104058D01*
X150248685Y-143104058D02*
X150201066Y-143127867D01*
X150201066Y-143127867D02*
X150153447Y-143127867D01*
X150153447Y-143127867D02*
X150105828Y-143104058D01*
X150105828Y-143104058D02*
X150082019Y-143080248D01*
X150082019Y-143080248D02*
X150058209Y-143032629D01*
X150058209Y-143032629D02*
X150058209Y-142913582D01*
X150058209Y-142913582D02*
X150082019Y-142842153D01*
X150558209Y-142627868D02*
X150058209Y-142627868D01*
X150058209Y-142627868D02*
X150058209Y-142508820D01*
X150058209Y-142508820D02*
X150082019Y-142437392D01*
X150082019Y-142437392D02*
X150129638Y-142389773D01*
X150129638Y-142389773D02*
X150177257Y-142365963D01*
X150177257Y-142365963D02*
X150272495Y-142342154D01*
X150272495Y-142342154D02*
X150343923Y-142342154D01*
X150343923Y-142342154D02*
X150439161Y-142365963D01*
X150439161Y-142365963D02*
X150486780Y-142389773D01*
X150486780Y-142389773D02*
X150534400Y-142437392D01*
X150534400Y-142437392D02*
X150558209Y-142508820D01*
X150558209Y-142508820D02*
X150558209Y-142627868D01*
X150415352Y-142151677D02*
X150415352Y-141913582D01*
X150558209Y-142199296D02*
X150058209Y-142032630D01*
X150058209Y-142032630D02*
X150558209Y-141865963D01*
X150534400Y-145667867D02*
X150558209Y-145596439D01*
X150558209Y-145596439D02*
X150558209Y-145477391D01*
X150558209Y-145477391D02*
X150534400Y-145429772D01*
X150534400Y-145429772D02*
X150510590Y-145405963D01*
X150510590Y-145405963D02*
X150462971Y-145382153D01*
X150462971Y-145382153D02*
X150415352Y-145382153D01*
X150415352Y-145382153D02*
X150367733Y-145405963D01*
X150367733Y-145405963D02*
X150343923Y-145429772D01*
X150343923Y-145429772D02*
X150320114Y-145477391D01*
X150320114Y-145477391D02*
X150296304Y-145572629D01*
X150296304Y-145572629D02*
X150272495Y-145620248D01*
X150272495Y-145620248D02*
X150248685Y-145644058D01*
X150248685Y-145644058D02*
X150201066Y-145667867D01*
X150201066Y-145667867D02*
X150153447Y-145667867D01*
X150153447Y-145667867D02*
X150105828Y-145644058D01*
X150105828Y-145644058D02*
X150082019Y-145620248D01*
X150082019Y-145620248D02*
X150058209Y-145572629D01*
X150058209Y-145572629D02*
X150058209Y-145453582D01*
X150058209Y-145453582D02*
X150082019Y-145382153D01*
X150510590Y-144882154D02*
X150534400Y-144905963D01*
X150534400Y-144905963D02*
X150558209Y-144977392D01*
X150558209Y-144977392D02*
X150558209Y-145025011D01*
X150558209Y-145025011D02*
X150534400Y-145096439D01*
X150534400Y-145096439D02*
X150486780Y-145144058D01*
X150486780Y-145144058D02*
X150439161Y-145167868D01*
X150439161Y-145167868D02*
X150343923Y-145191677D01*
X150343923Y-145191677D02*
X150272495Y-145191677D01*
X150272495Y-145191677D02*
X150177257Y-145167868D01*
X150177257Y-145167868D02*
X150129638Y-145144058D01*
X150129638Y-145144058D02*
X150082019Y-145096439D01*
X150082019Y-145096439D02*
X150058209Y-145025011D01*
X150058209Y-145025011D02*
X150058209Y-144977392D01*
X150058209Y-144977392D02*
X150082019Y-144905963D01*
X150082019Y-144905963D02*
X150105828Y-144882154D01*
X150558209Y-144429773D02*
X150558209Y-144667868D01*
X150558209Y-144667868D02*
X150058209Y-144667868D01*
X143590513Y-147772209D02*
X143876227Y-147772209D01*
X143733370Y-148272209D02*
X143733370Y-147772209D01*
X143995274Y-147772209D02*
X144328607Y-148272209D01*
X144328607Y-147772209D02*
X143995274Y-148272209D01*
X141407655Y-148272209D02*
X141240989Y-148034114D01*
X141121941Y-148272209D02*
X141121941Y-147772209D01*
X141121941Y-147772209D02*
X141312417Y-147772209D01*
X141312417Y-147772209D02*
X141360036Y-147796019D01*
X141360036Y-147796019D02*
X141383846Y-147819828D01*
X141383846Y-147819828D02*
X141407655Y-147867447D01*
X141407655Y-147867447D02*
X141407655Y-147938876D01*
X141407655Y-147938876D02*
X141383846Y-147986495D01*
X141383846Y-147986495D02*
X141360036Y-148010304D01*
X141360036Y-148010304D02*
X141312417Y-148034114D01*
X141312417Y-148034114D02*
X141121941Y-148034114D01*
X141574322Y-147772209D02*
X141907655Y-148272209D01*
X141907655Y-147772209D02*
X141574322Y-148272209D01*
X138256513Y-147772209D02*
X138423179Y-148272209D01*
X138423179Y-148272209D02*
X138589846Y-147772209D01*
X138970798Y-148248400D02*
X138923179Y-148272209D01*
X138923179Y-148272209D02*
X138827941Y-148272209D01*
X138827941Y-148272209D02*
X138780322Y-148248400D01*
X138780322Y-148248400D02*
X138756512Y-148224590D01*
X138756512Y-148224590D02*
X138732703Y-148176971D01*
X138732703Y-148176971D02*
X138732703Y-148034114D01*
X138732703Y-148034114D02*
X138756512Y-147986495D01*
X138756512Y-147986495D02*
X138780322Y-147962685D01*
X138780322Y-147962685D02*
X138827941Y-147938876D01*
X138827941Y-147938876D02*
X138923179Y-147938876D01*
X138923179Y-147938876D02*
X138970798Y-147962685D01*
X139399369Y-148248400D02*
X139351750Y-148272209D01*
X139351750Y-148272209D02*
X139256512Y-148272209D01*
X139256512Y-148272209D02*
X139208893Y-148248400D01*
X139208893Y-148248400D02*
X139185083Y-148224590D01*
X139185083Y-148224590D02*
X139161274Y-148176971D01*
X139161274Y-148176971D02*
X139161274Y-148034114D01*
X139161274Y-148034114D02*
X139185083Y-147986495D01*
X139185083Y-147986495D02*
X139208893Y-147962685D01*
X139208893Y-147962685D02*
X139256512Y-147938876D01*
X139256512Y-147938876D02*
X139351750Y-147938876D01*
X139351750Y-147938876D02*
X139399369Y-147962685D01*
X136049846Y-147796019D02*
X136002227Y-147772209D01*
X136002227Y-147772209D02*
X135930798Y-147772209D01*
X135930798Y-147772209D02*
X135859370Y-147796019D01*
X135859370Y-147796019D02*
X135811751Y-147843638D01*
X135811751Y-147843638D02*
X135787941Y-147891257D01*
X135787941Y-147891257D02*
X135764132Y-147986495D01*
X135764132Y-147986495D02*
X135764132Y-148057923D01*
X135764132Y-148057923D02*
X135787941Y-148153161D01*
X135787941Y-148153161D02*
X135811751Y-148200780D01*
X135811751Y-148200780D02*
X135859370Y-148248400D01*
X135859370Y-148248400D02*
X135930798Y-148272209D01*
X135930798Y-148272209D02*
X135978417Y-148272209D01*
X135978417Y-148272209D02*
X136049846Y-148248400D01*
X136049846Y-148248400D02*
X136073655Y-148224590D01*
X136073655Y-148224590D02*
X136073655Y-148057923D01*
X136073655Y-148057923D02*
X135978417Y-148057923D01*
X136287941Y-148272209D02*
X136287941Y-147772209D01*
X136287941Y-147772209D02*
X136573655Y-148272209D01*
X136573655Y-148272209D02*
X136573655Y-147772209D01*
X136811751Y-148272209D02*
X136811751Y-147772209D01*
X136811751Y-147772209D02*
X136930799Y-147772209D01*
X136930799Y-147772209D02*
X137002227Y-147796019D01*
X137002227Y-147796019D02*
X137049846Y-147843638D01*
X137049846Y-147843638D02*
X137073656Y-147891257D01*
X137073656Y-147891257D02*
X137097465Y-147986495D01*
X137097465Y-147986495D02*
X137097465Y-148057923D01*
X137097465Y-148057923D02*
X137073656Y-148153161D01*
X137073656Y-148153161D02*
X137049846Y-148200780D01*
X137049846Y-148200780D02*
X137002227Y-148248400D01*
X137002227Y-148248400D02*
X136930799Y-148272209D01*
X136930799Y-148272209D02*
X136811751Y-148272209D01*
X130636513Y-147772209D02*
X130803179Y-148272209D01*
X130803179Y-148272209D02*
X130969846Y-147772209D01*
X131350798Y-148248400D02*
X131303179Y-148272209D01*
X131303179Y-148272209D02*
X131207941Y-148272209D01*
X131207941Y-148272209D02*
X131160322Y-148248400D01*
X131160322Y-148248400D02*
X131136512Y-148224590D01*
X131136512Y-148224590D02*
X131112703Y-148176971D01*
X131112703Y-148176971D02*
X131112703Y-148034114D01*
X131112703Y-148034114D02*
X131136512Y-147986495D01*
X131136512Y-147986495D02*
X131160322Y-147962685D01*
X131160322Y-147962685D02*
X131207941Y-147938876D01*
X131207941Y-147938876D02*
X131303179Y-147938876D01*
X131303179Y-147938876D02*
X131350798Y-147962685D01*
X131779369Y-148248400D02*
X131731750Y-148272209D01*
X131731750Y-148272209D02*
X131636512Y-148272209D01*
X131636512Y-148272209D02*
X131588893Y-148248400D01*
X131588893Y-148248400D02*
X131565083Y-148224590D01*
X131565083Y-148224590D02*
X131541274Y-148176971D01*
X131541274Y-148176971D02*
X131541274Y-148034114D01*
X131541274Y-148034114D02*
X131565083Y-147986495D01*
X131565083Y-147986495D02*
X131588893Y-147962685D01*
X131588893Y-147962685D02*
X131636512Y-147938876D01*
X131636512Y-147938876D02*
X131731750Y-147938876D01*
X131731750Y-147938876D02*
X131779369Y-147962685D01*
X128429846Y-147796019D02*
X128382227Y-147772209D01*
X128382227Y-147772209D02*
X128310798Y-147772209D01*
X128310798Y-147772209D02*
X128239370Y-147796019D01*
X128239370Y-147796019D02*
X128191751Y-147843638D01*
X128191751Y-147843638D02*
X128167941Y-147891257D01*
X128167941Y-147891257D02*
X128144132Y-147986495D01*
X128144132Y-147986495D02*
X128144132Y-148057923D01*
X128144132Y-148057923D02*
X128167941Y-148153161D01*
X128167941Y-148153161D02*
X128191751Y-148200780D01*
X128191751Y-148200780D02*
X128239370Y-148248400D01*
X128239370Y-148248400D02*
X128310798Y-148272209D01*
X128310798Y-148272209D02*
X128358417Y-148272209D01*
X128358417Y-148272209D02*
X128429846Y-148248400D01*
X128429846Y-148248400D02*
X128453655Y-148224590D01*
X128453655Y-148224590D02*
X128453655Y-148057923D01*
X128453655Y-148057923D02*
X128358417Y-148057923D01*
X128667941Y-148272209D02*
X128667941Y-147772209D01*
X128667941Y-147772209D02*
X128953655Y-148272209D01*
X128953655Y-148272209D02*
X128953655Y-147772209D01*
X129191751Y-148272209D02*
X129191751Y-147772209D01*
X129191751Y-147772209D02*
X129310799Y-147772209D01*
X129310799Y-147772209D02*
X129382227Y-147796019D01*
X129382227Y-147796019D02*
X129429846Y-147843638D01*
X129429846Y-147843638D02*
X129453656Y-147891257D01*
X129453656Y-147891257D02*
X129477465Y-147986495D01*
X129477465Y-147986495D02*
X129477465Y-148057923D01*
X129477465Y-148057923D02*
X129453656Y-148153161D01*
X129453656Y-148153161D02*
X129429846Y-148200780D01*
X129429846Y-148200780D02*
X129382227Y-148248400D01*
X129382227Y-148248400D02*
X129310799Y-148272209D01*
X129310799Y-148272209D02*
X129191751Y-148272209D01*
X125881941Y-148272209D02*
X125881941Y-147772209D01*
X125881941Y-147772209D02*
X126000989Y-147772209D01*
X126000989Y-147772209D02*
X126072417Y-147796019D01*
X126072417Y-147796019D02*
X126120036Y-147843638D01*
X126120036Y-147843638D02*
X126143846Y-147891257D01*
X126143846Y-147891257D02*
X126167655Y-147986495D01*
X126167655Y-147986495D02*
X126167655Y-148057923D01*
X126167655Y-148057923D02*
X126143846Y-148153161D01*
X126143846Y-148153161D02*
X126120036Y-148200780D01*
X126120036Y-148200780D02*
X126072417Y-148248400D01*
X126072417Y-148248400D02*
X126000989Y-148272209D01*
X126000989Y-148272209D02*
X125881941Y-148272209D01*
X126453370Y-147986495D02*
X126405751Y-147962685D01*
X126405751Y-147962685D02*
X126381941Y-147938876D01*
X126381941Y-147938876D02*
X126358132Y-147891257D01*
X126358132Y-147891257D02*
X126358132Y-147867447D01*
X126358132Y-147867447D02*
X126381941Y-147819828D01*
X126381941Y-147819828D02*
X126405751Y-147796019D01*
X126405751Y-147796019D02*
X126453370Y-147772209D01*
X126453370Y-147772209D02*
X126548608Y-147772209D01*
X126548608Y-147772209D02*
X126596227Y-147796019D01*
X126596227Y-147796019D02*
X126620036Y-147819828D01*
X126620036Y-147819828D02*
X126643846Y-147867447D01*
X126643846Y-147867447D02*
X126643846Y-147891257D01*
X126643846Y-147891257D02*
X126620036Y-147938876D01*
X126620036Y-147938876D02*
X126596227Y-147962685D01*
X126596227Y-147962685D02*
X126548608Y-147986495D01*
X126548608Y-147986495D02*
X126453370Y-147986495D01*
X126453370Y-147986495D02*
X126405751Y-148010304D01*
X126405751Y-148010304D02*
X126381941Y-148034114D01*
X126381941Y-148034114D02*
X126358132Y-148081733D01*
X126358132Y-148081733D02*
X126358132Y-148176971D01*
X126358132Y-148176971D02*
X126381941Y-148224590D01*
X126381941Y-148224590D02*
X126405751Y-148248400D01*
X126405751Y-148248400D02*
X126453370Y-148272209D01*
X126453370Y-148272209D02*
X126548608Y-148272209D01*
X126548608Y-148272209D02*
X126596227Y-148248400D01*
X126596227Y-148248400D02*
X126620036Y-148224590D01*
X126620036Y-148224590D02*
X126643846Y-148176971D01*
X126643846Y-148176971D02*
X126643846Y-148081733D01*
X126643846Y-148081733D02*
X126620036Y-148034114D01*
X126620036Y-148034114D02*
X126596227Y-148010304D01*
X126596227Y-148010304D02*
X126548608Y-147986495D01*
X123341941Y-148272209D02*
X123341941Y-147772209D01*
X123341941Y-147772209D02*
X123460989Y-147772209D01*
X123460989Y-147772209D02*
X123532417Y-147796019D01*
X123532417Y-147796019D02*
X123580036Y-147843638D01*
X123580036Y-147843638D02*
X123603846Y-147891257D01*
X123603846Y-147891257D02*
X123627655Y-147986495D01*
X123627655Y-147986495D02*
X123627655Y-148057923D01*
X123627655Y-148057923D02*
X123603846Y-148153161D01*
X123603846Y-148153161D02*
X123580036Y-148200780D01*
X123580036Y-148200780D02*
X123532417Y-148248400D01*
X123532417Y-148248400D02*
X123460989Y-148272209D01*
X123460989Y-148272209D02*
X123341941Y-148272209D01*
X123794322Y-147772209D02*
X124127655Y-147772209D01*
X124127655Y-147772209D02*
X123913370Y-148272209D01*
X120801941Y-148272209D02*
X120801941Y-147772209D01*
X120801941Y-147772209D02*
X120920989Y-147772209D01*
X120920989Y-147772209D02*
X120992417Y-147796019D01*
X120992417Y-147796019D02*
X121040036Y-147843638D01*
X121040036Y-147843638D02*
X121063846Y-147891257D01*
X121063846Y-147891257D02*
X121087655Y-147986495D01*
X121087655Y-147986495D02*
X121087655Y-148057923D01*
X121087655Y-148057923D02*
X121063846Y-148153161D01*
X121063846Y-148153161D02*
X121040036Y-148200780D01*
X121040036Y-148200780D02*
X120992417Y-148248400D01*
X120992417Y-148248400D02*
X120920989Y-148272209D01*
X120920989Y-148272209D02*
X120801941Y-148272209D01*
X121516227Y-147772209D02*
X121420989Y-147772209D01*
X121420989Y-147772209D02*
X121373370Y-147796019D01*
X121373370Y-147796019D02*
X121349560Y-147819828D01*
X121349560Y-147819828D02*
X121301941Y-147891257D01*
X121301941Y-147891257D02*
X121278132Y-147986495D01*
X121278132Y-147986495D02*
X121278132Y-148176971D01*
X121278132Y-148176971D02*
X121301941Y-148224590D01*
X121301941Y-148224590D02*
X121325751Y-148248400D01*
X121325751Y-148248400D02*
X121373370Y-148272209D01*
X121373370Y-148272209D02*
X121468608Y-148272209D01*
X121468608Y-148272209D02*
X121516227Y-148248400D01*
X121516227Y-148248400D02*
X121540036Y-148224590D01*
X121540036Y-148224590D02*
X121563846Y-148176971D01*
X121563846Y-148176971D02*
X121563846Y-148057923D01*
X121563846Y-148057923D02*
X121540036Y-148010304D01*
X121540036Y-148010304D02*
X121516227Y-147986495D01*
X121516227Y-147986495D02*
X121468608Y-147962685D01*
X121468608Y-147962685D02*
X121373370Y-147962685D01*
X121373370Y-147962685D02*
X121325751Y-147986495D01*
X121325751Y-147986495D02*
X121301941Y-148010304D01*
X121301941Y-148010304D02*
X121278132Y-148057923D01*
X118261941Y-148272209D02*
X118261941Y-147772209D01*
X118261941Y-147772209D02*
X118380989Y-147772209D01*
X118380989Y-147772209D02*
X118452417Y-147796019D01*
X118452417Y-147796019D02*
X118500036Y-147843638D01*
X118500036Y-147843638D02*
X118523846Y-147891257D01*
X118523846Y-147891257D02*
X118547655Y-147986495D01*
X118547655Y-147986495D02*
X118547655Y-148057923D01*
X118547655Y-148057923D02*
X118523846Y-148153161D01*
X118523846Y-148153161D02*
X118500036Y-148200780D01*
X118500036Y-148200780D02*
X118452417Y-148248400D01*
X118452417Y-148248400D02*
X118380989Y-148272209D01*
X118380989Y-148272209D02*
X118261941Y-148272209D01*
X119000036Y-147772209D02*
X118761941Y-147772209D01*
X118761941Y-147772209D02*
X118738132Y-148010304D01*
X118738132Y-148010304D02*
X118761941Y-147986495D01*
X118761941Y-147986495D02*
X118809560Y-147962685D01*
X118809560Y-147962685D02*
X118928608Y-147962685D01*
X118928608Y-147962685D02*
X118976227Y-147986495D01*
X118976227Y-147986495D02*
X119000036Y-148010304D01*
X119000036Y-148010304D02*
X119023846Y-148057923D01*
X119023846Y-148057923D02*
X119023846Y-148176971D01*
X119023846Y-148176971D02*
X119000036Y-148224590D01*
X119000036Y-148224590D02*
X118976227Y-148248400D01*
X118976227Y-148248400D02*
X118928608Y-148272209D01*
X118928608Y-148272209D02*
X118809560Y-148272209D01*
X118809560Y-148272209D02*
X118761941Y-148248400D01*
X118761941Y-148248400D02*
X118738132Y-148224590D01*
X115721941Y-148272209D02*
X115721941Y-147772209D01*
X115721941Y-147772209D02*
X115840989Y-147772209D01*
X115840989Y-147772209D02*
X115912417Y-147796019D01*
X115912417Y-147796019D02*
X115960036Y-147843638D01*
X115960036Y-147843638D02*
X115983846Y-147891257D01*
X115983846Y-147891257D02*
X116007655Y-147986495D01*
X116007655Y-147986495D02*
X116007655Y-148057923D01*
X116007655Y-148057923D02*
X115983846Y-148153161D01*
X115983846Y-148153161D02*
X115960036Y-148200780D01*
X115960036Y-148200780D02*
X115912417Y-148248400D01*
X115912417Y-148248400D02*
X115840989Y-148272209D01*
X115840989Y-148272209D02*
X115721941Y-148272209D01*
X116436227Y-147938876D02*
X116436227Y-148272209D01*
X116317179Y-147748400D02*
X116198132Y-148105542D01*
X116198132Y-148105542D02*
X116507655Y-148105542D01*
X113181941Y-148272209D02*
X113181941Y-147772209D01*
X113181941Y-147772209D02*
X113300989Y-147772209D01*
X113300989Y-147772209D02*
X113372417Y-147796019D01*
X113372417Y-147796019D02*
X113420036Y-147843638D01*
X113420036Y-147843638D02*
X113443846Y-147891257D01*
X113443846Y-147891257D02*
X113467655Y-147986495D01*
X113467655Y-147986495D02*
X113467655Y-148057923D01*
X113467655Y-148057923D02*
X113443846Y-148153161D01*
X113443846Y-148153161D02*
X113420036Y-148200780D01*
X113420036Y-148200780D02*
X113372417Y-148248400D01*
X113372417Y-148248400D02*
X113300989Y-148272209D01*
X113300989Y-148272209D02*
X113181941Y-148272209D01*
X113634322Y-147772209D02*
X113943846Y-147772209D01*
X113943846Y-147772209D02*
X113777179Y-147962685D01*
X113777179Y-147962685D02*
X113848608Y-147962685D01*
X113848608Y-147962685D02*
X113896227Y-147986495D01*
X113896227Y-147986495D02*
X113920036Y-148010304D01*
X113920036Y-148010304D02*
X113943846Y-148057923D01*
X113943846Y-148057923D02*
X113943846Y-148176971D01*
X113943846Y-148176971D02*
X113920036Y-148224590D01*
X113920036Y-148224590D02*
X113896227Y-148248400D01*
X113896227Y-148248400D02*
X113848608Y-148272209D01*
X113848608Y-148272209D02*
X113705751Y-148272209D01*
X113705751Y-148272209D02*
X113658132Y-148248400D01*
X113658132Y-148248400D02*
X113634322Y-148224590D01*
X110641941Y-148272209D02*
X110641941Y-147772209D01*
X110641941Y-147772209D02*
X110760989Y-147772209D01*
X110760989Y-147772209D02*
X110832417Y-147796019D01*
X110832417Y-147796019D02*
X110880036Y-147843638D01*
X110880036Y-147843638D02*
X110903846Y-147891257D01*
X110903846Y-147891257D02*
X110927655Y-147986495D01*
X110927655Y-147986495D02*
X110927655Y-148057923D01*
X110927655Y-148057923D02*
X110903846Y-148153161D01*
X110903846Y-148153161D02*
X110880036Y-148200780D01*
X110880036Y-148200780D02*
X110832417Y-148248400D01*
X110832417Y-148248400D02*
X110760989Y-148272209D01*
X110760989Y-148272209D02*
X110641941Y-148272209D01*
X111118132Y-147819828D02*
X111141941Y-147796019D01*
X111141941Y-147796019D02*
X111189560Y-147772209D01*
X111189560Y-147772209D02*
X111308608Y-147772209D01*
X111308608Y-147772209D02*
X111356227Y-147796019D01*
X111356227Y-147796019D02*
X111380036Y-147819828D01*
X111380036Y-147819828D02*
X111403846Y-147867447D01*
X111403846Y-147867447D02*
X111403846Y-147915066D01*
X111403846Y-147915066D02*
X111380036Y-147986495D01*
X111380036Y-147986495D02*
X111094322Y-148272209D01*
X111094322Y-148272209D02*
X111403846Y-148272209D01*
D12*
X123364667Y-139682700D02*
X123364667Y-140016033D01*
X123131333Y-139316033D02*
X123364667Y-139682700D01*
X123364667Y-139682700D02*
X123598000Y-139316033D01*
X123798000Y-139382700D02*
X123831333Y-139349366D01*
X123831333Y-139349366D02*
X123898000Y-139316033D01*
X123898000Y-139316033D02*
X124064667Y-139316033D01*
X124064667Y-139316033D02*
X124131333Y-139349366D01*
X124131333Y-139349366D02*
X124164667Y-139382700D01*
X124164667Y-139382700D02*
X124198000Y-139449366D01*
X124198000Y-139449366D02*
X124198000Y-139516033D01*
X124198000Y-139516033D02*
X124164667Y-139616033D01*
X124164667Y-139616033D02*
X123764667Y-140016033D01*
X123764667Y-140016033D02*
X124198000Y-140016033D01*
X129106000Y-140016033D02*
X128706000Y-140016033D01*
X128906000Y-140016033D02*
X128906000Y-139316033D01*
X128906000Y-139316033D02*
X128839333Y-139416033D01*
X128839333Y-139416033D02*
X128772667Y-139482700D01*
X128772667Y-139482700D02*
X128706000Y-139516033D01*
X129706000Y-139316033D02*
X129572667Y-139316033D01*
X129572667Y-139316033D02*
X129506000Y-139349366D01*
X129506000Y-139349366D02*
X129472667Y-139382700D01*
X129472667Y-139382700D02*
X129406000Y-139482700D01*
X129406000Y-139482700D02*
X129372667Y-139616033D01*
X129372667Y-139616033D02*
X129372667Y-139882700D01*
X129372667Y-139882700D02*
X129406000Y-139949366D01*
X129406000Y-139949366D02*
X129439334Y-139982700D01*
X129439334Y-139982700D02*
X129506000Y-140016033D01*
X129506000Y-140016033D02*
X129639334Y-140016033D01*
X129639334Y-140016033D02*
X129706000Y-139982700D01*
X129706000Y-139982700D02*
X129739334Y-139949366D01*
X129739334Y-139949366D02*
X129772667Y-139882700D01*
X129772667Y-139882700D02*
X129772667Y-139716033D01*
X129772667Y-139716033D02*
X129739334Y-139649366D01*
X129739334Y-139649366D02*
X129706000Y-139616033D01*
X129706000Y-139616033D02*
X129639334Y-139582700D01*
X129639334Y-139582700D02*
X129506000Y-139582700D01*
X129506000Y-139582700D02*
X129439334Y-139616033D01*
X129439334Y-139616033D02*
X129406000Y-139649366D01*
X129406000Y-139649366D02*
X129372667Y-139716033D01*
X130606000Y-140016033D02*
X130606000Y-139316033D01*
X130606000Y-139316033D02*
X130839334Y-139816033D01*
X130839334Y-139816033D02*
X131072667Y-139316033D01*
X131072667Y-139316033D02*
X131072667Y-140016033D01*
X131406000Y-140016033D02*
X131406000Y-139316033D01*
X131406000Y-139649366D02*
X131806000Y-139649366D01*
X131806000Y-140016033D02*
X131806000Y-139316033D01*
X132072667Y-139549366D02*
X132439333Y-139549366D01*
X132439333Y-139549366D02*
X132072667Y-140016033D01*
X132072667Y-140016033D02*
X132439333Y-140016033D01*
X106154700Y-143843333D02*
X106488033Y-143843333D01*
X105788033Y-144076666D02*
X106154700Y-143843333D01*
X106154700Y-143843333D02*
X105788033Y-143609999D01*
X106488033Y-143009999D02*
X106488033Y-143409999D01*
X106488033Y-143209999D02*
X105788033Y-143209999D01*
X105788033Y-143209999D02*
X105888033Y-143276666D01*
X105888033Y-143276666D02*
X105954700Y-143343333D01*
X105954700Y-143343333D02*
X105988033Y-143409999D01*
X105788033Y-140855334D02*
X105788033Y-140422000D01*
X105788033Y-140422000D02*
X106054700Y-140655334D01*
X106054700Y-140655334D02*
X106054700Y-140555334D01*
X106054700Y-140555334D02*
X106088033Y-140488667D01*
X106088033Y-140488667D02*
X106121366Y-140455334D01*
X106121366Y-140455334D02*
X106188033Y-140422000D01*
X106188033Y-140422000D02*
X106354700Y-140422000D01*
X106354700Y-140422000D02*
X106421366Y-140455334D01*
X106421366Y-140455334D02*
X106454700Y-140488667D01*
X106454700Y-140488667D02*
X106488033Y-140555334D01*
X106488033Y-140555334D02*
X106488033Y-140755334D01*
X106488033Y-140755334D02*
X106454700Y-140822000D01*
X106454700Y-140822000D02*
X106421366Y-140855334D01*
X105854700Y-140155333D02*
X105821366Y-140122000D01*
X105821366Y-140122000D02*
X105788033Y-140055333D01*
X105788033Y-140055333D02*
X105788033Y-139888667D01*
X105788033Y-139888667D02*
X105821366Y-139822000D01*
X105821366Y-139822000D02*
X105854700Y-139788667D01*
X105854700Y-139788667D02*
X105921366Y-139755333D01*
X105921366Y-139755333D02*
X105988033Y-139755333D01*
X105988033Y-139755333D02*
X106088033Y-139788667D01*
X106088033Y-139788667D02*
X106488033Y-140188667D01*
X106488033Y-140188667D02*
X106488033Y-139755333D01*
X106421366Y-139455333D02*
X106454700Y-139422000D01*
X106454700Y-139422000D02*
X106488033Y-139455333D01*
X106488033Y-139455333D02*
X106454700Y-139488666D01*
X106454700Y-139488666D02*
X106421366Y-139455333D01*
X106421366Y-139455333D02*
X106488033Y-139455333D01*
X105788033Y-139188667D02*
X105788033Y-138722000D01*
X105788033Y-138722000D02*
X106488033Y-139022000D01*
X105788033Y-138155333D02*
X105788033Y-138288666D01*
X105788033Y-138288666D02*
X105821366Y-138355333D01*
X105821366Y-138355333D02*
X105854700Y-138388666D01*
X105854700Y-138388666D02*
X105954700Y-138455333D01*
X105954700Y-138455333D02*
X106088033Y-138488666D01*
X106088033Y-138488666D02*
X106354700Y-138488666D01*
X106354700Y-138488666D02*
X106421366Y-138455333D01*
X106421366Y-138455333D02*
X106454700Y-138422000D01*
X106454700Y-138422000D02*
X106488033Y-138355333D01*
X106488033Y-138355333D02*
X106488033Y-138222000D01*
X106488033Y-138222000D02*
X106454700Y-138155333D01*
X106454700Y-138155333D02*
X106421366Y-138122000D01*
X106421366Y-138122000D02*
X106354700Y-138088666D01*
X106354700Y-138088666D02*
X106188033Y-138088666D01*
X106188033Y-138088666D02*
X106121366Y-138122000D01*
X106121366Y-138122000D02*
X106088033Y-138155333D01*
X106088033Y-138155333D02*
X106054700Y-138222000D01*
X106054700Y-138222000D02*
X106054700Y-138355333D01*
X106054700Y-138355333D02*
X106088033Y-138422000D01*
X106088033Y-138422000D02*
X106121366Y-138455333D01*
X106121366Y-138455333D02*
X106188033Y-138488666D01*
X106088033Y-137688666D02*
X106054700Y-137755333D01*
X106054700Y-137755333D02*
X106021366Y-137788666D01*
X106021366Y-137788666D02*
X105954700Y-137821999D01*
X105954700Y-137821999D02*
X105921366Y-137821999D01*
X105921366Y-137821999D02*
X105854700Y-137788666D01*
X105854700Y-137788666D02*
X105821366Y-137755333D01*
X105821366Y-137755333D02*
X105788033Y-137688666D01*
X105788033Y-137688666D02*
X105788033Y-137555333D01*
X105788033Y-137555333D02*
X105821366Y-137488666D01*
X105821366Y-137488666D02*
X105854700Y-137455333D01*
X105854700Y-137455333D02*
X105921366Y-137421999D01*
X105921366Y-137421999D02*
X105954700Y-137421999D01*
X105954700Y-137421999D02*
X106021366Y-137455333D01*
X106021366Y-137455333D02*
X106054700Y-137488666D01*
X106054700Y-137488666D02*
X106088033Y-137555333D01*
X106088033Y-137555333D02*
X106088033Y-137688666D01*
X106088033Y-137688666D02*
X106121366Y-137755333D01*
X106121366Y-137755333D02*
X106154700Y-137788666D01*
X106154700Y-137788666D02*
X106221366Y-137821999D01*
X106221366Y-137821999D02*
X106354700Y-137821999D01*
X106354700Y-137821999D02*
X106421366Y-137788666D01*
X106421366Y-137788666D02*
X106454700Y-137755333D01*
X106454700Y-137755333D02*
X106488033Y-137688666D01*
X106488033Y-137688666D02*
X106488033Y-137555333D01*
X106488033Y-137555333D02*
X106454700Y-137488666D01*
X106454700Y-137488666D02*
X106421366Y-137455333D01*
X106421366Y-137455333D02*
X106354700Y-137421999D01*
X106354700Y-137421999D02*
X106221366Y-137421999D01*
X106221366Y-137421999D02*
X106154700Y-137455333D01*
X106154700Y-137455333D02*
X106121366Y-137488666D01*
X106121366Y-137488666D02*
X106088033Y-137555333D01*
X106488033Y-136588666D02*
X105788033Y-136588666D01*
X106221366Y-136521999D02*
X106488033Y-136321999D01*
X106021366Y-136321999D02*
X106288033Y-136588666D01*
X106488033Y-136021999D02*
X105788033Y-136021999D01*
X106121366Y-136021999D02*
X106121366Y-135621999D01*
X106488033Y-135621999D02*
X105788033Y-135621999D01*
X106021366Y-135355333D02*
X106021366Y-134988666D01*
X106021366Y-134988666D02*
X106488033Y-135355333D01*
X106488033Y-135355333D02*
X106488033Y-134988666D01*
X123190095Y-126708819D02*
X123190095Y-127518342D01*
X123190095Y-127518342D02*
X123237714Y-127613580D01*
X123237714Y-127613580D02*
X123285333Y-127661200D01*
X123285333Y-127661200D02*
X123380571Y-127708819D01*
X123380571Y-127708819D02*
X123571047Y-127708819D01*
X123571047Y-127708819D02*
X123666285Y-127661200D01*
X123666285Y-127661200D02*
X123713904Y-127613580D01*
X123713904Y-127613580D02*
X123761523Y-127518342D01*
X123761523Y-127518342D02*
X123761523Y-126708819D01*
X124666285Y-127042152D02*
X124666285Y-127708819D01*
X124428190Y-126661200D02*
X124190095Y-127375485D01*
X124190095Y-127375485D02*
X124809142Y-127375485D01*
X119380095Y-130010819D02*
X119380095Y-130820342D01*
X119380095Y-130820342D02*
X119427714Y-130915580D01*
X119427714Y-130915580D02*
X119475333Y-130963200D01*
X119475333Y-130963200D02*
X119570571Y-131010819D01*
X119570571Y-131010819D02*
X119761047Y-131010819D01*
X119761047Y-131010819D02*
X119856285Y-130963200D01*
X119856285Y-130963200D02*
X119903904Y-130915580D01*
X119903904Y-130915580D02*
X119951523Y-130820342D01*
X119951523Y-130820342D02*
X119951523Y-130010819D01*
X120332476Y-130010819D02*
X120951523Y-130010819D01*
X120951523Y-130010819D02*
X120618190Y-130391771D01*
X120618190Y-130391771D02*
X120761047Y-130391771D01*
X120761047Y-130391771D02*
X120856285Y-130439390D01*
X120856285Y-130439390D02*
X120903904Y-130487009D01*
X120903904Y-130487009D02*
X120951523Y-130582247D01*
X120951523Y-130582247D02*
X120951523Y-130820342D01*
X120951523Y-130820342D02*
X120903904Y-130915580D01*
X120903904Y-130915580D02*
X120856285Y-130963200D01*
X120856285Y-130963200D02*
X120761047Y-131010819D01*
X120761047Y-131010819D02*
X120475333Y-131010819D01*
X120475333Y-131010819D02*
X120380095Y-130963200D01*
X120380095Y-130963200D02*
X120332476Y-130915580D01*
X119126095Y-123406819D02*
X119126095Y-124216342D01*
X119126095Y-124216342D02*
X119173714Y-124311580D01*
X119173714Y-124311580D02*
X119221333Y-124359200D01*
X119221333Y-124359200D02*
X119316571Y-124406819D01*
X119316571Y-124406819D02*
X119507047Y-124406819D01*
X119507047Y-124406819D02*
X119602285Y-124359200D01*
X119602285Y-124359200D02*
X119649904Y-124311580D01*
X119649904Y-124311580D02*
X119697523Y-124216342D01*
X119697523Y-124216342D02*
X119697523Y-123406819D01*
X120126095Y-123502057D02*
X120173714Y-123454438D01*
X120173714Y-123454438D02*
X120268952Y-123406819D01*
X120268952Y-123406819D02*
X120507047Y-123406819D01*
X120507047Y-123406819D02*
X120602285Y-123454438D01*
X120602285Y-123454438D02*
X120649904Y-123502057D01*
X120649904Y-123502057D02*
X120697523Y-123597295D01*
X120697523Y-123597295D02*
X120697523Y-123692533D01*
X120697523Y-123692533D02*
X120649904Y-123835390D01*
X120649904Y-123835390D02*
X120078476Y-124406819D01*
X120078476Y-124406819D02*
X120697523Y-124406819D01*
X118364095Y-137376819D02*
X118364095Y-138186342D01*
X118364095Y-138186342D02*
X118411714Y-138281580D01*
X118411714Y-138281580D02*
X118459333Y-138329200D01*
X118459333Y-138329200D02*
X118554571Y-138376819D01*
X118554571Y-138376819D02*
X118745047Y-138376819D01*
X118745047Y-138376819D02*
X118840285Y-138329200D01*
X118840285Y-138329200D02*
X118887904Y-138281580D01*
X118887904Y-138281580D02*
X118935523Y-138186342D01*
X118935523Y-138186342D02*
X118935523Y-137376819D01*
X119935523Y-138376819D02*
X119364095Y-138376819D01*
X119649809Y-138376819D02*
X119649809Y-137376819D01*
X119649809Y-137376819D02*
X119554571Y-137519676D01*
X119554571Y-137519676D02*
X119459333Y-137614914D01*
X119459333Y-137614914D02*
X119364095Y-137662533D01*
D13*
X135298666Y-122906809D02*
X135132000Y-122668714D01*
X135012952Y-122906809D02*
X135012952Y-122406809D01*
X135012952Y-122406809D02*
X135203428Y-122406809D01*
X135203428Y-122406809D02*
X135251047Y-122430619D01*
X135251047Y-122430619D02*
X135274857Y-122454428D01*
X135274857Y-122454428D02*
X135298666Y-122502047D01*
X135298666Y-122502047D02*
X135298666Y-122573476D01*
X135298666Y-122573476D02*
X135274857Y-122621095D01*
X135274857Y-122621095D02*
X135251047Y-122644904D01*
X135251047Y-122644904D02*
X135203428Y-122668714D01*
X135203428Y-122668714D02*
X135012952Y-122668714D01*
X135465333Y-122406809D02*
X135798666Y-122406809D01*
X135798666Y-122406809D02*
X135584381Y-122906809D01*
D10*
X136771143Y-122408109D02*
X137080667Y-122408109D01*
X137080667Y-122408109D02*
X136914000Y-122598585D01*
X136914000Y-122598585D02*
X136985429Y-122598585D01*
X136985429Y-122598585D02*
X137033048Y-122622395D01*
X137033048Y-122622395D02*
X137056857Y-122646204D01*
X137056857Y-122646204D02*
X137080667Y-122693823D01*
X137080667Y-122693823D02*
X137080667Y-122812871D01*
X137080667Y-122812871D02*
X137056857Y-122860490D01*
X137056857Y-122860490D02*
X137033048Y-122884300D01*
X137033048Y-122884300D02*
X136985429Y-122908109D01*
X136985429Y-122908109D02*
X136842572Y-122908109D01*
X136842572Y-122908109D02*
X136794953Y-122884300D01*
X136794953Y-122884300D02*
X136771143Y-122860490D01*
X137247333Y-122408109D02*
X137556857Y-122408109D01*
X137556857Y-122408109D02*
X137390190Y-122598585D01*
X137390190Y-122598585D02*
X137461619Y-122598585D01*
X137461619Y-122598585D02*
X137509238Y-122622395D01*
X137509238Y-122622395D02*
X137533047Y-122646204D01*
X137533047Y-122646204D02*
X137556857Y-122693823D01*
X137556857Y-122693823D02*
X137556857Y-122812871D01*
X137556857Y-122812871D02*
X137533047Y-122860490D01*
X137533047Y-122860490D02*
X137509238Y-122884300D01*
X137509238Y-122884300D02*
X137461619Y-122908109D01*
X137461619Y-122908109D02*
X137318762Y-122908109D01*
X137318762Y-122908109D02*
X137271143Y-122884300D01*
X137271143Y-122884300D02*
X137247333Y-122860490D01*
X137866380Y-122408109D02*
X137913999Y-122408109D01*
X137913999Y-122408109D02*
X137961618Y-122431919D01*
X137961618Y-122431919D02*
X137985428Y-122455728D01*
X137985428Y-122455728D02*
X138009237Y-122503347D01*
X138009237Y-122503347D02*
X138033047Y-122598585D01*
X138033047Y-122598585D02*
X138033047Y-122717633D01*
X138033047Y-122717633D02*
X138009237Y-122812871D01*
X138009237Y-122812871D02*
X137985428Y-122860490D01*
X137985428Y-122860490D02*
X137961618Y-122884300D01*
X137961618Y-122884300D02*
X137913999Y-122908109D01*
X137913999Y-122908109D02*
X137866380Y-122908109D01*
X137866380Y-122908109D02*
X137818761Y-122884300D01*
X137818761Y-122884300D02*
X137794952Y-122860490D01*
X137794952Y-122860490D02*
X137771142Y-122812871D01*
X137771142Y-122812871D02*
X137747333Y-122717633D01*
X137747333Y-122717633D02*
X137747333Y-122598585D01*
X137747333Y-122598585D02*
X137771142Y-122503347D01*
X137771142Y-122503347D02*
X137794952Y-122455728D01*
X137794952Y-122455728D02*
X137818761Y-122431919D01*
X137818761Y-122431919D02*
X137866380Y-122408109D01*
D13*
X139870666Y-130018809D02*
X139704000Y-129780714D01*
X139584952Y-130018809D02*
X139584952Y-129518809D01*
X139584952Y-129518809D02*
X139775428Y-129518809D01*
X139775428Y-129518809D02*
X139823047Y-129542619D01*
X139823047Y-129542619D02*
X139846857Y-129566428D01*
X139846857Y-129566428D02*
X139870666Y-129614047D01*
X139870666Y-129614047D02*
X139870666Y-129685476D01*
X139870666Y-129685476D02*
X139846857Y-129733095D01*
X139846857Y-129733095D02*
X139823047Y-129756904D01*
X139823047Y-129756904D02*
X139775428Y-129780714D01*
X139775428Y-129780714D02*
X139584952Y-129780714D01*
X140299238Y-129518809D02*
X140204000Y-129518809D01*
X140204000Y-129518809D02*
X140156381Y-129542619D01*
X140156381Y-129542619D02*
X140132571Y-129566428D01*
X140132571Y-129566428D02*
X140084952Y-129637857D01*
X140084952Y-129637857D02*
X140061143Y-129733095D01*
X140061143Y-129733095D02*
X140061143Y-129923571D01*
X140061143Y-129923571D02*
X140084952Y-129971190D01*
X140084952Y-129971190D02*
X140108762Y-129995000D01*
X140108762Y-129995000D02*
X140156381Y-130018809D01*
X140156381Y-130018809D02*
X140251619Y-130018809D01*
X140251619Y-130018809D02*
X140299238Y-129995000D01*
X140299238Y-129995000D02*
X140323047Y-129971190D01*
X140323047Y-129971190D02*
X140346857Y-129923571D01*
X140346857Y-129923571D02*
X140346857Y-129804523D01*
X140346857Y-129804523D02*
X140323047Y-129756904D01*
X140323047Y-129756904D02*
X140299238Y-129733095D01*
X140299238Y-129733095D02*
X140251619Y-129709285D01*
X140251619Y-129709285D02*
X140156381Y-129709285D01*
X140156381Y-129709285D02*
X140108762Y-129733095D01*
X140108762Y-129733095D02*
X140084952Y-129756904D01*
X140084952Y-129756904D02*
X140061143Y-129804523D01*
D10*
X141688381Y-130020109D02*
X141402667Y-130020109D01*
X141545524Y-130020109D02*
X141545524Y-129520109D01*
X141545524Y-129520109D02*
X141497905Y-129591538D01*
X141497905Y-129591538D02*
X141450286Y-129639157D01*
X141450286Y-129639157D02*
X141402667Y-129662966D01*
X141997904Y-129520109D02*
X142045523Y-129520109D01*
X142045523Y-129520109D02*
X142093142Y-129543919D01*
X142093142Y-129543919D02*
X142116952Y-129567728D01*
X142116952Y-129567728D02*
X142140761Y-129615347D01*
X142140761Y-129615347D02*
X142164571Y-129710585D01*
X142164571Y-129710585D02*
X142164571Y-129829633D01*
X142164571Y-129829633D02*
X142140761Y-129924871D01*
X142140761Y-129924871D02*
X142116952Y-129972490D01*
X142116952Y-129972490D02*
X142093142Y-129996300D01*
X142093142Y-129996300D02*
X142045523Y-130020109D01*
X142045523Y-130020109D02*
X141997904Y-130020109D01*
X141997904Y-130020109D02*
X141950285Y-129996300D01*
X141950285Y-129996300D02*
X141926476Y-129972490D01*
X141926476Y-129972490D02*
X141902666Y-129924871D01*
X141902666Y-129924871D02*
X141878857Y-129829633D01*
X141878857Y-129829633D02*
X141878857Y-129710585D01*
X141878857Y-129710585D02*
X141902666Y-129615347D01*
X141902666Y-129615347D02*
X141926476Y-129567728D01*
X141926476Y-129567728D02*
X141950285Y-129543919D01*
X141950285Y-129543919D02*
X141997904Y-129520109D01*
X142378856Y-130020109D02*
X142378856Y-129520109D01*
X142426475Y-129829633D02*
X142569332Y-130020109D01*
X142569332Y-129686776D02*
X142378856Y-129877252D01*
D13*
X143172666Y-127478809D02*
X143006000Y-127240714D01*
X142886952Y-127478809D02*
X142886952Y-126978809D01*
X142886952Y-126978809D02*
X143077428Y-126978809D01*
X143077428Y-126978809D02*
X143125047Y-127002619D01*
X143125047Y-127002619D02*
X143148857Y-127026428D01*
X143148857Y-127026428D02*
X143172666Y-127074047D01*
X143172666Y-127074047D02*
X143172666Y-127145476D01*
X143172666Y-127145476D02*
X143148857Y-127193095D01*
X143148857Y-127193095D02*
X143125047Y-127216904D01*
X143125047Y-127216904D02*
X143077428Y-127240714D01*
X143077428Y-127240714D02*
X142886952Y-127240714D01*
X143625047Y-126978809D02*
X143386952Y-126978809D01*
X143386952Y-126978809D02*
X143363143Y-127216904D01*
X143363143Y-127216904D02*
X143386952Y-127193095D01*
X143386952Y-127193095D02*
X143434571Y-127169285D01*
X143434571Y-127169285D02*
X143553619Y-127169285D01*
X143553619Y-127169285D02*
X143601238Y-127193095D01*
X143601238Y-127193095D02*
X143625047Y-127216904D01*
X143625047Y-127216904D02*
X143648857Y-127264523D01*
X143648857Y-127264523D02*
X143648857Y-127383571D01*
X143648857Y-127383571D02*
X143625047Y-127431190D01*
X143625047Y-127431190D02*
X143601238Y-127455000D01*
X143601238Y-127455000D02*
X143553619Y-127478809D01*
X143553619Y-127478809D02*
X143434571Y-127478809D01*
X143434571Y-127478809D02*
X143386952Y-127455000D01*
X143386952Y-127455000D02*
X143363143Y-127431190D01*
D10*
X144899143Y-126980109D02*
X145208667Y-126980109D01*
X145208667Y-126980109D02*
X145042000Y-127170585D01*
X145042000Y-127170585D02*
X145113429Y-127170585D01*
X145113429Y-127170585D02*
X145161048Y-127194395D01*
X145161048Y-127194395D02*
X145184857Y-127218204D01*
X145184857Y-127218204D02*
X145208667Y-127265823D01*
X145208667Y-127265823D02*
X145208667Y-127384871D01*
X145208667Y-127384871D02*
X145184857Y-127432490D01*
X145184857Y-127432490D02*
X145161048Y-127456300D01*
X145161048Y-127456300D02*
X145113429Y-127480109D01*
X145113429Y-127480109D02*
X144970572Y-127480109D01*
X144970572Y-127480109D02*
X144922953Y-127456300D01*
X144922953Y-127456300D02*
X144899143Y-127432490D01*
X145375333Y-126980109D02*
X145684857Y-126980109D01*
X145684857Y-126980109D02*
X145518190Y-127170585D01*
X145518190Y-127170585D02*
X145589619Y-127170585D01*
X145589619Y-127170585D02*
X145637238Y-127194395D01*
X145637238Y-127194395D02*
X145661047Y-127218204D01*
X145661047Y-127218204D02*
X145684857Y-127265823D01*
X145684857Y-127265823D02*
X145684857Y-127384871D01*
X145684857Y-127384871D02*
X145661047Y-127432490D01*
X145661047Y-127432490D02*
X145637238Y-127456300D01*
X145637238Y-127456300D02*
X145589619Y-127480109D01*
X145589619Y-127480109D02*
X145446762Y-127480109D01*
X145446762Y-127480109D02*
X145399143Y-127456300D01*
X145399143Y-127456300D02*
X145375333Y-127432490D01*
X145994380Y-126980109D02*
X146041999Y-126980109D01*
X146041999Y-126980109D02*
X146089618Y-127003919D01*
X146089618Y-127003919D02*
X146113428Y-127027728D01*
X146113428Y-127027728D02*
X146137237Y-127075347D01*
X146137237Y-127075347D02*
X146161047Y-127170585D01*
X146161047Y-127170585D02*
X146161047Y-127289633D01*
X146161047Y-127289633D02*
X146137237Y-127384871D01*
X146137237Y-127384871D02*
X146113428Y-127432490D01*
X146113428Y-127432490D02*
X146089618Y-127456300D01*
X146089618Y-127456300D02*
X146041999Y-127480109D01*
X146041999Y-127480109D02*
X145994380Y-127480109D01*
X145994380Y-127480109D02*
X145946761Y-127456300D01*
X145946761Y-127456300D02*
X145922952Y-127432490D01*
X145922952Y-127432490D02*
X145899142Y-127384871D01*
X145899142Y-127384871D02*
X145875333Y-127289633D01*
X145875333Y-127289633D02*
X145875333Y-127170585D01*
X145875333Y-127170585D02*
X145899142Y-127075347D01*
X145899142Y-127075347D02*
X145922952Y-127027728D01*
X145922952Y-127027728D02*
X145946761Y-127003919D01*
X145946761Y-127003919D02*
X145994380Y-126980109D01*
D13*
X131742666Y-122906809D02*
X131576000Y-122668714D01*
X131456952Y-122906809D02*
X131456952Y-122406809D01*
X131456952Y-122406809D02*
X131647428Y-122406809D01*
X131647428Y-122406809D02*
X131695047Y-122430619D01*
X131695047Y-122430619D02*
X131718857Y-122454428D01*
X131718857Y-122454428D02*
X131742666Y-122502047D01*
X131742666Y-122502047D02*
X131742666Y-122573476D01*
X131742666Y-122573476D02*
X131718857Y-122621095D01*
X131718857Y-122621095D02*
X131695047Y-122644904D01*
X131695047Y-122644904D02*
X131647428Y-122668714D01*
X131647428Y-122668714D02*
X131456952Y-122668714D01*
X132171238Y-122573476D02*
X132171238Y-122906809D01*
X132052190Y-122383000D02*
X131933143Y-122740142D01*
X131933143Y-122740142D02*
X132242666Y-122740142D01*
D10*
X133139715Y-122574776D02*
X133139715Y-122908109D01*
X133020667Y-122384300D02*
X132901620Y-122741442D01*
X132901620Y-122741442D02*
X133211143Y-122741442D01*
X133401619Y-122860490D02*
X133425429Y-122884300D01*
X133425429Y-122884300D02*
X133401619Y-122908109D01*
X133401619Y-122908109D02*
X133377810Y-122884300D01*
X133377810Y-122884300D02*
X133401619Y-122860490D01*
X133401619Y-122860490D02*
X133401619Y-122908109D01*
X133592095Y-122408109D02*
X133925428Y-122408109D01*
X133925428Y-122408109D02*
X133711143Y-122908109D01*
X134115904Y-122908109D02*
X134115904Y-122408109D01*
X134163523Y-122717633D02*
X134306380Y-122908109D01*
X134306380Y-122574776D02*
X134115904Y-122765252D01*
D13*
X143426666Y-130018809D02*
X143260000Y-129780714D01*
X143140952Y-130018809D02*
X143140952Y-129518809D01*
X143140952Y-129518809D02*
X143331428Y-129518809D01*
X143331428Y-129518809D02*
X143379047Y-129542619D01*
X143379047Y-129542619D02*
X143402857Y-129566428D01*
X143402857Y-129566428D02*
X143426666Y-129614047D01*
X143426666Y-129614047D02*
X143426666Y-129685476D01*
X143426666Y-129685476D02*
X143402857Y-129733095D01*
X143402857Y-129733095D02*
X143379047Y-129756904D01*
X143379047Y-129756904D02*
X143331428Y-129780714D01*
X143331428Y-129780714D02*
X143140952Y-129780714D01*
X143593333Y-129518809D02*
X143902857Y-129518809D01*
X143902857Y-129518809D02*
X143736190Y-129709285D01*
X143736190Y-129709285D02*
X143807619Y-129709285D01*
X143807619Y-129709285D02*
X143855238Y-129733095D01*
X143855238Y-129733095D02*
X143879047Y-129756904D01*
X143879047Y-129756904D02*
X143902857Y-129804523D01*
X143902857Y-129804523D02*
X143902857Y-129923571D01*
X143902857Y-129923571D02*
X143879047Y-129971190D01*
X143879047Y-129971190D02*
X143855238Y-129995000D01*
X143855238Y-129995000D02*
X143807619Y-130018809D01*
X143807619Y-130018809D02*
X143664762Y-130018809D01*
X143664762Y-130018809D02*
X143617143Y-129995000D01*
X143617143Y-129995000D02*
X143593333Y-129971190D01*
D10*
X145331715Y-129686776D02*
X145331715Y-130020109D01*
X145212667Y-129496300D02*
X145093620Y-129853442D01*
X145093620Y-129853442D02*
X145403143Y-129853442D01*
X145593619Y-129972490D02*
X145617429Y-129996300D01*
X145617429Y-129996300D02*
X145593619Y-130020109D01*
X145593619Y-130020109D02*
X145569810Y-129996300D01*
X145569810Y-129996300D02*
X145593619Y-129972490D01*
X145593619Y-129972490D02*
X145593619Y-130020109D01*
X145784095Y-129520109D02*
X146117428Y-129520109D01*
X146117428Y-129520109D02*
X145903143Y-130020109D01*
X146307904Y-130020109D02*
X146307904Y-129520109D01*
X146355523Y-129829633D02*
X146498380Y-130020109D01*
X146498380Y-129686776D02*
X146307904Y-129877252D01*
D13*
X116756666Y-144750809D02*
X116590000Y-144512714D01*
X116470952Y-144750809D02*
X116470952Y-144250809D01*
X116470952Y-144250809D02*
X116661428Y-144250809D01*
X116661428Y-144250809D02*
X116709047Y-144274619D01*
X116709047Y-144274619D02*
X116732857Y-144298428D01*
X116732857Y-144298428D02*
X116756666Y-144346047D01*
X116756666Y-144346047D02*
X116756666Y-144417476D01*
X116756666Y-144417476D02*
X116732857Y-144465095D01*
X116732857Y-144465095D02*
X116709047Y-144488904D01*
X116709047Y-144488904D02*
X116661428Y-144512714D01*
X116661428Y-144512714D02*
X116470952Y-144512714D01*
X116947143Y-144298428D02*
X116970952Y-144274619D01*
X116970952Y-144274619D02*
X117018571Y-144250809D01*
X117018571Y-144250809D02*
X117137619Y-144250809D01*
X117137619Y-144250809D02*
X117185238Y-144274619D01*
X117185238Y-144274619D02*
X117209047Y-144298428D01*
X117209047Y-144298428D02*
X117232857Y-144346047D01*
X117232857Y-144346047D02*
X117232857Y-144393666D01*
X117232857Y-144393666D02*
X117209047Y-144465095D01*
X117209047Y-144465095D02*
X116923333Y-144750809D01*
X116923333Y-144750809D02*
X117232857Y-144750809D01*
D10*
X118828381Y-144752109D02*
X118542667Y-144752109D01*
X118685524Y-144752109D02*
X118685524Y-144252109D01*
X118685524Y-144252109D02*
X118637905Y-144323538D01*
X118637905Y-144323538D02*
X118590286Y-144371157D01*
X118590286Y-144371157D02*
X118542667Y-144394966D01*
X119137904Y-144252109D02*
X119185523Y-144252109D01*
X119185523Y-144252109D02*
X119233142Y-144275919D01*
X119233142Y-144275919D02*
X119256952Y-144299728D01*
X119256952Y-144299728D02*
X119280761Y-144347347D01*
X119280761Y-144347347D02*
X119304571Y-144442585D01*
X119304571Y-144442585D02*
X119304571Y-144561633D01*
X119304571Y-144561633D02*
X119280761Y-144656871D01*
X119280761Y-144656871D02*
X119256952Y-144704490D01*
X119256952Y-144704490D02*
X119233142Y-144728300D01*
X119233142Y-144728300D02*
X119185523Y-144752109D01*
X119185523Y-144752109D02*
X119137904Y-144752109D01*
X119137904Y-144752109D02*
X119090285Y-144728300D01*
X119090285Y-144728300D02*
X119066476Y-144704490D01*
X119066476Y-144704490D02*
X119042666Y-144656871D01*
X119042666Y-144656871D02*
X119018857Y-144561633D01*
X119018857Y-144561633D02*
X119018857Y-144442585D01*
X119018857Y-144442585D02*
X119042666Y-144347347D01*
X119042666Y-144347347D02*
X119066476Y-144299728D01*
X119066476Y-144299728D02*
X119090285Y-144275919D01*
X119090285Y-144275919D02*
X119137904Y-144252109D01*
X119518856Y-144752109D02*
X119518856Y-144252109D01*
X119566475Y-144561633D02*
X119709332Y-144752109D01*
X119709332Y-144418776D02*
X119518856Y-144609252D01*
D13*
X112692666Y-144750809D02*
X112526000Y-144512714D01*
X112406952Y-144750809D02*
X112406952Y-144250809D01*
X112406952Y-144250809D02*
X112597428Y-144250809D01*
X112597428Y-144250809D02*
X112645047Y-144274619D01*
X112645047Y-144274619D02*
X112668857Y-144298428D01*
X112668857Y-144298428D02*
X112692666Y-144346047D01*
X112692666Y-144346047D02*
X112692666Y-144417476D01*
X112692666Y-144417476D02*
X112668857Y-144465095D01*
X112668857Y-144465095D02*
X112645047Y-144488904D01*
X112645047Y-144488904D02*
X112597428Y-144512714D01*
X112597428Y-144512714D02*
X112406952Y-144512714D01*
X113168857Y-144750809D02*
X112883143Y-144750809D01*
X113026000Y-144750809D02*
X113026000Y-144250809D01*
X113026000Y-144250809D02*
X112978381Y-144322238D01*
X112978381Y-144322238D02*
X112930762Y-144369857D01*
X112930762Y-144369857D02*
X112883143Y-144393666D01*
D10*
X114764381Y-144752109D02*
X114478667Y-144752109D01*
X114621524Y-144752109D02*
X114621524Y-144252109D01*
X114621524Y-144252109D02*
X114573905Y-144323538D01*
X114573905Y-144323538D02*
X114526286Y-144371157D01*
X114526286Y-144371157D02*
X114478667Y-144394966D01*
X115073904Y-144252109D02*
X115121523Y-144252109D01*
X115121523Y-144252109D02*
X115169142Y-144275919D01*
X115169142Y-144275919D02*
X115192952Y-144299728D01*
X115192952Y-144299728D02*
X115216761Y-144347347D01*
X115216761Y-144347347D02*
X115240571Y-144442585D01*
X115240571Y-144442585D02*
X115240571Y-144561633D01*
X115240571Y-144561633D02*
X115216761Y-144656871D01*
X115216761Y-144656871D02*
X115192952Y-144704490D01*
X115192952Y-144704490D02*
X115169142Y-144728300D01*
X115169142Y-144728300D02*
X115121523Y-144752109D01*
X115121523Y-144752109D02*
X115073904Y-144752109D01*
X115073904Y-144752109D02*
X115026285Y-144728300D01*
X115026285Y-144728300D02*
X115002476Y-144704490D01*
X115002476Y-144704490D02*
X114978666Y-144656871D01*
X114978666Y-144656871D02*
X114954857Y-144561633D01*
X114954857Y-144561633D02*
X114954857Y-144442585D01*
X114954857Y-144442585D02*
X114978666Y-144347347D01*
X114978666Y-144347347D02*
X115002476Y-144299728D01*
X115002476Y-144299728D02*
X115026285Y-144275919D01*
X115026285Y-144275919D02*
X115073904Y-144252109D01*
X115454856Y-144752109D02*
X115454856Y-144252109D01*
X115502475Y-144561633D02*
X115645332Y-144752109D01*
X115645332Y-144418776D02*
X115454856Y-144609252D01*
D12*
X148256666Y-125648819D02*
X148256666Y-126363104D01*
X148256666Y-126363104D02*
X148209047Y-126505961D01*
X148209047Y-126505961D02*
X148113809Y-126601200D01*
X148113809Y-126601200D02*
X147970952Y-126648819D01*
X147970952Y-126648819D02*
X147875714Y-126648819D01*
X149161428Y-125982152D02*
X149161428Y-126648819D01*
X148923333Y-125601200D02*
X148685238Y-126315485D01*
X148685238Y-126315485D02*
X149304285Y-126315485D01*
X109394666Y-146520819D02*
X109394666Y-147235104D01*
X109394666Y-147235104D02*
X109347047Y-147377961D01*
X109347047Y-147377961D02*
X109251809Y-147473200D01*
X109251809Y-147473200D02*
X109108952Y-147520819D01*
X109108952Y-147520819D02*
X109013714Y-147520819D01*
X109775619Y-146520819D02*
X110394666Y-146520819D01*
X110394666Y-146520819D02*
X110061333Y-146901771D01*
X110061333Y-146901771D02*
X110204190Y-146901771D01*
X110204190Y-146901771D02*
X110299428Y-146949390D01*
X110299428Y-146949390D02*
X110347047Y-146997009D01*
X110347047Y-146997009D02*
X110394666Y-147092247D01*
X110394666Y-147092247D02*
X110394666Y-147330342D01*
X110394666Y-147330342D02*
X110347047Y-147425580D01*
X110347047Y-147425580D02*
X110299428Y-147473200D01*
X110299428Y-147473200D02*
X110204190Y-147520819D01*
X110204190Y-147520819D02*
X109918476Y-147520819D01*
X109918476Y-147520819D02*
X109823238Y-147473200D01*
X109823238Y-147473200D02*
X109775619Y-147425580D01*
X151812666Y-134538819D02*
X151812666Y-135253104D01*
X151812666Y-135253104D02*
X151765047Y-135395961D01*
X151765047Y-135395961D02*
X151669809Y-135491200D01*
X151669809Y-135491200D02*
X151526952Y-135538819D01*
X151526952Y-135538819D02*
X151431714Y-135538819D01*
X152812666Y-135538819D02*
X152241238Y-135538819D01*
X152526952Y-135538819D02*
X152526952Y-134538819D01*
X152526952Y-134538819D02*
X152431714Y-134681676D01*
X152431714Y-134681676D02*
X152336476Y-134776914D01*
X152336476Y-134776914D02*
X152241238Y-134824533D01*
D13*
X140346952Y-122906809D02*
X140346952Y-122406809D01*
X140346952Y-122406809D02*
X140466000Y-122406809D01*
X140466000Y-122406809D02*
X140537428Y-122430619D01*
X140537428Y-122430619D02*
X140585047Y-122478238D01*
X140585047Y-122478238D02*
X140608857Y-122525857D01*
X140608857Y-122525857D02*
X140632666Y-122621095D01*
X140632666Y-122621095D02*
X140632666Y-122692523D01*
X140632666Y-122692523D02*
X140608857Y-122787761D01*
X140608857Y-122787761D02*
X140585047Y-122835380D01*
X140585047Y-122835380D02*
X140537428Y-122883000D01*
X140537428Y-122883000D02*
X140466000Y-122906809D01*
X140466000Y-122906809D02*
X140346952Y-122906809D01*
X140823143Y-122454428D02*
X140846952Y-122430619D01*
X140846952Y-122430619D02*
X140894571Y-122406809D01*
X140894571Y-122406809D02*
X141013619Y-122406809D01*
X141013619Y-122406809D02*
X141061238Y-122430619D01*
X141061238Y-122430619D02*
X141085047Y-122454428D01*
X141085047Y-122454428D02*
X141108857Y-122502047D01*
X141108857Y-122502047D02*
X141108857Y-122549666D01*
X141108857Y-122549666D02*
X141085047Y-122621095D01*
X141085047Y-122621095D02*
X140799333Y-122906809D01*
X140799333Y-122906809D02*
X141108857Y-122906809D01*
D10*
X144156952Y-122908109D02*
X144156952Y-122408109D01*
X144156952Y-122408109D02*
X144276000Y-122408109D01*
X144276000Y-122408109D02*
X144347428Y-122431919D01*
X144347428Y-122431919D02*
X144395047Y-122479538D01*
X144395047Y-122479538D02*
X144418857Y-122527157D01*
X144418857Y-122527157D02*
X144442666Y-122622395D01*
X144442666Y-122622395D02*
X144442666Y-122693823D01*
X144442666Y-122693823D02*
X144418857Y-122789061D01*
X144418857Y-122789061D02*
X144395047Y-122836680D01*
X144395047Y-122836680D02*
X144347428Y-122884300D01*
X144347428Y-122884300D02*
X144276000Y-122908109D01*
X144276000Y-122908109D02*
X144156952Y-122908109D01*
X144918857Y-122908109D02*
X144633143Y-122908109D01*
X144776000Y-122908109D02*
X144776000Y-122408109D01*
X144776000Y-122408109D02*
X144728381Y-122479538D01*
X144728381Y-122479538D02*
X144680762Y-122527157D01*
X144680762Y-122527157D02*
X144633143Y-122550966D01*
X109144490Y-127591333D02*
X109168300Y-127615142D01*
X109168300Y-127615142D02*
X109192109Y-127686571D01*
X109192109Y-127686571D02*
X109192109Y-127734190D01*
X109192109Y-127734190D02*
X109168300Y-127805618D01*
X109168300Y-127805618D02*
X109120680Y-127853237D01*
X109120680Y-127853237D02*
X109073061Y-127877047D01*
X109073061Y-127877047D02*
X108977823Y-127900856D01*
X108977823Y-127900856D02*
X108906395Y-127900856D01*
X108906395Y-127900856D02*
X108811157Y-127877047D01*
X108811157Y-127877047D02*
X108763538Y-127853237D01*
X108763538Y-127853237D02*
X108715919Y-127805618D01*
X108715919Y-127805618D02*
X108692109Y-127734190D01*
X108692109Y-127734190D02*
X108692109Y-127686571D01*
X108692109Y-127686571D02*
X108715919Y-127615142D01*
X108715919Y-127615142D02*
X108739728Y-127591333D01*
X108692109Y-127138952D02*
X108692109Y-127377047D01*
X108692109Y-127377047D02*
X108930204Y-127400856D01*
X108930204Y-127400856D02*
X108906395Y-127377047D01*
X108906395Y-127377047D02*
X108882585Y-127329428D01*
X108882585Y-127329428D02*
X108882585Y-127210380D01*
X108882585Y-127210380D02*
X108906395Y-127162761D01*
X108906395Y-127162761D02*
X108930204Y-127138952D01*
X108930204Y-127138952D02*
X108977823Y-127115142D01*
X108977823Y-127115142D02*
X109096871Y-127115142D01*
X109096871Y-127115142D02*
X109144490Y-127138952D01*
X109144490Y-127138952D02*
X109168300Y-127162761D01*
X109168300Y-127162761D02*
X109192109Y-127210380D01*
X109192109Y-127210380D02*
X109192109Y-127329428D01*
X109192109Y-127329428D02*
X109168300Y-127377047D01*
X109168300Y-127377047D02*
X109144490Y-127400856D01*
X109192109Y-125995808D02*
X109192109Y-126281522D01*
X109192109Y-126138665D02*
X108692109Y-126138665D01*
X108692109Y-126138665D02*
X108763538Y-126186284D01*
X108763538Y-126186284D02*
X108811157Y-126233903D01*
X108811157Y-126233903D02*
X108834966Y-126281522D01*
X108692109Y-125686285D02*
X108692109Y-125638666D01*
X108692109Y-125638666D02*
X108715919Y-125591047D01*
X108715919Y-125591047D02*
X108739728Y-125567237D01*
X108739728Y-125567237D02*
X108787347Y-125543428D01*
X108787347Y-125543428D02*
X108882585Y-125519618D01*
X108882585Y-125519618D02*
X109001633Y-125519618D01*
X109001633Y-125519618D02*
X109096871Y-125543428D01*
X109096871Y-125543428D02*
X109144490Y-125567237D01*
X109144490Y-125567237D02*
X109168300Y-125591047D01*
X109168300Y-125591047D02*
X109192109Y-125638666D01*
X109192109Y-125638666D02*
X109192109Y-125686285D01*
X109192109Y-125686285D02*
X109168300Y-125733904D01*
X109168300Y-125733904D02*
X109144490Y-125757713D01*
X109144490Y-125757713D02*
X109096871Y-125781523D01*
X109096871Y-125781523D02*
X109001633Y-125805332D01*
X109001633Y-125805332D02*
X108882585Y-125805332D01*
X108882585Y-125805332D02*
X108787347Y-125781523D01*
X108787347Y-125781523D02*
X108739728Y-125757713D01*
X108739728Y-125757713D02*
X108715919Y-125733904D01*
X108715919Y-125733904D02*
X108692109Y-125686285D01*
X108692109Y-125210095D02*
X108692109Y-125162476D01*
X108692109Y-125162476D02*
X108715919Y-125114857D01*
X108715919Y-125114857D02*
X108739728Y-125091047D01*
X108739728Y-125091047D02*
X108787347Y-125067238D01*
X108787347Y-125067238D02*
X108882585Y-125043428D01*
X108882585Y-125043428D02*
X109001633Y-125043428D01*
X109001633Y-125043428D02*
X109096871Y-125067238D01*
X109096871Y-125067238D02*
X109144490Y-125091047D01*
X109144490Y-125091047D02*
X109168300Y-125114857D01*
X109168300Y-125114857D02*
X109192109Y-125162476D01*
X109192109Y-125162476D02*
X109192109Y-125210095D01*
X109192109Y-125210095D02*
X109168300Y-125257714D01*
X109168300Y-125257714D02*
X109144490Y-125281523D01*
X109144490Y-125281523D02*
X109096871Y-125305333D01*
X109096871Y-125305333D02*
X109001633Y-125329142D01*
X109001633Y-125329142D02*
X108882585Y-125329142D01*
X108882585Y-125329142D02*
X108787347Y-125305333D01*
X108787347Y-125305333D02*
X108739728Y-125281523D01*
X108739728Y-125281523D02*
X108715919Y-125257714D01*
X108715919Y-125257714D02*
X108692109Y-125210095D01*
X108858776Y-124829143D02*
X109192109Y-124829143D01*
X108906395Y-124829143D02*
X108882585Y-124805333D01*
X108882585Y-124805333D02*
X108858776Y-124757714D01*
X108858776Y-124757714D02*
X108858776Y-124686286D01*
X108858776Y-124686286D02*
X108882585Y-124638667D01*
X108882585Y-124638667D02*
X108930204Y-124614857D01*
X108930204Y-124614857D02*
X109192109Y-124614857D01*
X108930204Y-124210095D02*
X108930204Y-124376762D01*
X109192109Y-124376762D02*
X108692109Y-124376762D01*
X108692109Y-124376762D02*
X108692109Y-124138667D01*
D13*
X135044666Y-127431190D02*
X135020857Y-127455000D01*
X135020857Y-127455000D02*
X134949428Y-127478809D01*
X134949428Y-127478809D02*
X134901809Y-127478809D01*
X134901809Y-127478809D02*
X134830381Y-127455000D01*
X134830381Y-127455000D02*
X134782762Y-127407380D01*
X134782762Y-127407380D02*
X134758952Y-127359761D01*
X134758952Y-127359761D02*
X134735143Y-127264523D01*
X134735143Y-127264523D02*
X134735143Y-127193095D01*
X134735143Y-127193095D02*
X134758952Y-127097857D01*
X134758952Y-127097857D02*
X134782762Y-127050238D01*
X134782762Y-127050238D02*
X134830381Y-127002619D01*
X134830381Y-127002619D02*
X134901809Y-126978809D01*
X134901809Y-126978809D02*
X134949428Y-126978809D01*
X134949428Y-126978809D02*
X135020857Y-127002619D01*
X135020857Y-127002619D02*
X135044666Y-127026428D01*
X135473238Y-127145476D02*
X135473238Y-127478809D01*
X135354190Y-126955000D02*
X135235143Y-127312142D01*
X135235143Y-127312142D02*
X135544666Y-127312142D01*
D10*
X136338572Y-126980109D02*
X136386191Y-126980109D01*
X136386191Y-126980109D02*
X136433810Y-127003919D01*
X136433810Y-127003919D02*
X136457620Y-127027728D01*
X136457620Y-127027728D02*
X136481429Y-127075347D01*
X136481429Y-127075347D02*
X136505239Y-127170585D01*
X136505239Y-127170585D02*
X136505239Y-127289633D01*
X136505239Y-127289633D02*
X136481429Y-127384871D01*
X136481429Y-127384871D02*
X136457620Y-127432490D01*
X136457620Y-127432490D02*
X136433810Y-127456300D01*
X136433810Y-127456300D02*
X136386191Y-127480109D01*
X136386191Y-127480109D02*
X136338572Y-127480109D01*
X136338572Y-127480109D02*
X136290953Y-127456300D01*
X136290953Y-127456300D02*
X136267144Y-127432490D01*
X136267144Y-127432490D02*
X136243334Y-127384871D01*
X136243334Y-127384871D02*
X136219525Y-127289633D01*
X136219525Y-127289633D02*
X136219525Y-127170585D01*
X136219525Y-127170585D02*
X136243334Y-127075347D01*
X136243334Y-127075347D02*
X136267144Y-127027728D01*
X136267144Y-127027728D02*
X136290953Y-127003919D01*
X136290953Y-127003919D02*
X136338572Y-126980109D01*
X136719524Y-127432490D02*
X136743334Y-127456300D01*
X136743334Y-127456300D02*
X136719524Y-127480109D01*
X136719524Y-127480109D02*
X136695715Y-127456300D01*
X136695715Y-127456300D02*
X136719524Y-127432490D01*
X136719524Y-127432490D02*
X136719524Y-127480109D01*
X137219524Y-127480109D02*
X136933810Y-127480109D01*
X137076667Y-127480109D02*
X137076667Y-126980109D01*
X137076667Y-126980109D02*
X137029048Y-127051538D01*
X137029048Y-127051538D02*
X136981429Y-127099157D01*
X136981429Y-127099157D02*
X136933810Y-127122966D01*
X137648095Y-127146776D02*
X137648095Y-127480109D01*
X137433809Y-127146776D02*
X137433809Y-127408680D01*
X137433809Y-127408680D02*
X137457619Y-127456300D01*
X137457619Y-127456300D02*
X137505238Y-127480109D01*
X137505238Y-127480109D02*
X137576666Y-127480109D01*
X137576666Y-127480109D02*
X137624285Y-127456300D01*
X137624285Y-127456300D02*
X137648095Y-127432490D01*
X138052857Y-127218204D02*
X137886190Y-127218204D01*
X137886190Y-127480109D02*
X137886190Y-126980109D01*
X137886190Y-126980109D02*
X138124285Y-126980109D01*
D13*
X128694666Y-146481190D02*
X128670857Y-146505000D01*
X128670857Y-146505000D02*
X128599428Y-146528809D01*
X128599428Y-146528809D02*
X128551809Y-146528809D01*
X128551809Y-146528809D02*
X128480381Y-146505000D01*
X128480381Y-146505000D02*
X128432762Y-146457380D01*
X128432762Y-146457380D02*
X128408952Y-146409761D01*
X128408952Y-146409761D02*
X128385143Y-146314523D01*
X128385143Y-146314523D02*
X128385143Y-146243095D01*
X128385143Y-146243095D02*
X128408952Y-146147857D01*
X128408952Y-146147857D02*
X128432762Y-146100238D01*
X128432762Y-146100238D02*
X128480381Y-146052619D01*
X128480381Y-146052619D02*
X128551809Y-146028809D01*
X128551809Y-146028809D02*
X128599428Y-146028809D01*
X128599428Y-146028809D02*
X128670857Y-146052619D01*
X128670857Y-146052619D02*
X128694666Y-146076428D01*
X128861333Y-146028809D02*
X129170857Y-146028809D01*
X129170857Y-146028809D02*
X129004190Y-146219285D01*
X129004190Y-146219285D02*
X129075619Y-146219285D01*
X129075619Y-146219285D02*
X129123238Y-146243095D01*
X129123238Y-146243095D02*
X129147047Y-146266904D01*
X129147047Y-146266904D02*
X129170857Y-146314523D01*
X129170857Y-146314523D02*
X129170857Y-146433571D01*
X129170857Y-146433571D02*
X129147047Y-146481190D01*
X129147047Y-146481190D02*
X129123238Y-146505000D01*
X129123238Y-146505000D02*
X129075619Y-146528809D01*
X129075619Y-146528809D02*
X128932762Y-146528809D01*
X128932762Y-146528809D02*
X128885143Y-146505000D01*
X128885143Y-146505000D02*
X128861333Y-146481190D01*
D10*
X129734572Y-146077728D02*
X129758381Y-146053919D01*
X129758381Y-146053919D02*
X129806000Y-146030109D01*
X129806000Y-146030109D02*
X129925048Y-146030109D01*
X129925048Y-146030109D02*
X129972667Y-146053919D01*
X129972667Y-146053919D02*
X129996476Y-146077728D01*
X129996476Y-146077728D02*
X130020286Y-146125347D01*
X130020286Y-146125347D02*
X130020286Y-146172966D01*
X130020286Y-146172966D02*
X129996476Y-146244395D01*
X129996476Y-146244395D02*
X129710762Y-146530109D01*
X129710762Y-146530109D02*
X130020286Y-146530109D01*
X130210762Y-146077728D02*
X130234571Y-146053919D01*
X130234571Y-146053919D02*
X130282190Y-146030109D01*
X130282190Y-146030109D02*
X130401238Y-146030109D01*
X130401238Y-146030109D02*
X130448857Y-146053919D01*
X130448857Y-146053919D02*
X130472666Y-146077728D01*
X130472666Y-146077728D02*
X130496476Y-146125347D01*
X130496476Y-146125347D02*
X130496476Y-146172966D01*
X130496476Y-146172966D02*
X130472666Y-146244395D01*
X130472666Y-146244395D02*
X130186952Y-146530109D01*
X130186952Y-146530109D02*
X130496476Y-146530109D01*
X130710761Y-146196776D02*
X130710761Y-146696776D01*
X130710761Y-146220585D02*
X130758380Y-146196776D01*
X130758380Y-146196776D02*
X130853618Y-146196776D01*
X130853618Y-146196776D02*
X130901237Y-146220585D01*
X130901237Y-146220585D02*
X130925047Y-146244395D01*
X130925047Y-146244395D02*
X130948856Y-146292014D01*
X130948856Y-146292014D02*
X130948856Y-146434871D01*
X130948856Y-146434871D02*
X130925047Y-146482490D01*
X130925047Y-146482490D02*
X130901237Y-146506300D01*
X130901237Y-146506300D02*
X130853618Y-146530109D01*
X130853618Y-146530109D02*
X130758380Y-146530109D01*
X130758380Y-146530109D02*
X130710761Y-146506300D01*
X131329809Y-146268204D02*
X131163142Y-146268204D01*
X131163142Y-146530109D02*
X131163142Y-146030109D01*
X131163142Y-146030109D02*
X131401237Y-146030109D01*
D13*
X124884666Y-146481190D02*
X124860857Y-146505000D01*
X124860857Y-146505000D02*
X124789428Y-146528809D01*
X124789428Y-146528809D02*
X124741809Y-146528809D01*
X124741809Y-146528809D02*
X124670381Y-146505000D01*
X124670381Y-146505000D02*
X124622762Y-146457380D01*
X124622762Y-146457380D02*
X124598952Y-146409761D01*
X124598952Y-146409761D02*
X124575143Y-146314523D01*
X124575143Y-146314523D02*
X124575143Y-146243095D01*
X124575143Y-146243095D02*
X124598952Y-146147857D01*
X124598952Y-146147857D02*
X124622762Y-146100238D01*
X124622762Y-146100238D02*
X124670381Y-146052619D01*
X124670381Y-146052619D02*
X124741809Y-146028809D01*
X124741809Y-146028809D02*
X124789428Y-146028809D01*
X124789428Y-146028809D02*
X124860857Y-146052619D01*
X124860857Y-146052619D02*
X124884666Y-146076428D01*
X125075143Y-146076428D02*
X125098952Y-146052619D01*
X125098952Y-146052619D02*
X125146571Y-146028809D01*
X125146571Y-146028809D02*
X125265619Y-146028809D01*
X125265619Y-146028809D02*
X125313238Y-146052619D01*
X125313238Y-146052619D02*
X125337047Y-146076428D01*
X125337047Y-146076428D02*
X125360857Y-146124047D01*
X125360857Y-146124047D02*
X125360857Y-146171666D01*
X125360857Y-146171666D02*
X125337047Y-146243095D01*
X125337047Y-146243095D02*
X125051333Y-146528809D01*
X125051333Y-146528809D02*
X125360857Y-146528809D01*
D10*
X126178572Y-146077728D02*
X126202381Y-146053919D01*
X126202381Y-146053919D02*
X126250000Y-146030109D01*
X126250000Y-146030109D02*
X126369048Y-146030109D01*
X126369048Y-146030109D02*
X126416667Y-146053919D01*
X126416667Y-146053919D02*
X126440476Y-146077728D01*
X126440476Y-146077728D02*
X126464286Y-146125347D01*
X126464286Y-146125347D02*
X126464286Y-146172966D01*
X126464286Y-146172966D02*
X126440476Y-146244395D01*
X126440476Y-146244395D02*
X126154762Y-146530109D01*
X126154762Y-146530109D02*
X126464286Y-146530109D01*
X126654762Y-146077728D02*
X126678571Y-146053919D01*
X126678571Y-146053919D02*
X126726190Y-146030109D01*
X126726190Y-146030109D02*
X126845238Y-146030109D01*
X126845238Y-146030109D02*
X126892857Y-146053919D01*
X126892857Y-146053919D02*
X126916666Y-146077728D01*
X126916666Y-146077728D02*
X126940476Y-146125347D01*
X126940476Y-146125347D02*
X126940476Y-146172966D01*
X126940476Y-146172966D02*
X126916666Y-146244395D01*
X126916666Y-146244395D02*
X126630952Y-146530109D01*
X126630952Y-146530109D02*
X126940476Y-146530109D01*
X127154761Y-146196776D02*
X127154761Y-146696776D01*
X127154761Y-146220585D02*
X127202380Y-146196776D01*
X127202380Y-146196776D02*
X127297618Y-146196776D01*
X127297618Y-146196776D02*
X127345237Y-146220585D01*
X127345237Y-146220585D02*
X127369047Y-146244395D01*
X127369047Y-146244395D02*
X127392856Y-146292014D01*
X127392856Y-146292014D02*
X127392856Y-146434871D01*
X127392856Y-146434871D02*
X127369047Y-146482490D01*
X127369047Y-146482490D02*
X127345237Y-146506300D01*
X127345237Y-146506300D02*
X127297618Y-146530109D01*
X127297618Y-146530109D02*
X127202380Y-146530109D01*
X127202380Y-146530109D02*
X127154761Y-146506300D01*
X127773809Y-146268204D02*
X127607142Y-146268204D01*
X127607142Y-146530109D02*
X127607142Y-146030109D01*
X127607142Y-146030109D02*
X127845237Y-146030109D01*
D13*
X121328666Y-146481190D02*
X121304857Y-146505000D01*
X121304857Y-146505000D02*
X121233428Y-146528809D01*
X121233428Y-146528809D02*
X121185809Y-146528809D01*
X121185809Y-146528809D02*
X121114381Y-146505000D01*
X121114381Y-146505000D02*
X121066762Y-146457380D01*
X121066762Y-146457380D02*
X121042952Y-146409761D01*
X121042952Y-146409761D02*
X121019143Y-146314523D01*
X121019143Y-146314523D02*
X121019143Y-146243095D01*
X121019143Y-146243095D02*
X121042952Y-146147857D01*
X121042952Y-146147857D02*
X121066762Y-146100238D01*
X121066762Y-146100238D02*
X121114381Y-146052619D01*
X121114381Y-146052619D02*
X121185809Y-146028809D01*
X121185809Y-146028809D02*
X121233428Y-146028809D01*
X121233428Y-146028809D02*
X121304857Y-146052619D01*
X121304857Y-146052619D02*
X121328666Y-146076428D01*
X121804857Y-146528809D02*
X121519143Y-146528809D01*
X121662000Y-146528809D02*
X121662000Y-146028809D01*
X121662000Y-146028809D02*
X121614381Y-146100238D01*
X121614381Y-146100238D02*
X121566762Y-146147857D01*
X121566762Y-146147857D02*
X121519143Y-146171666D01*
D10*
X122368572Y-146030109D02*
X122416191Y-146030109D01*
X122416191Y-146030109D02*
X122463810Y-146053919D01*
X122463810Y-146053919D02*
X122487620Y-146077728D01*
X122487620Y-146077728D02*
X122511429Y-146125347D01*
X122511429Y-146125347D02*
X122535239Y-146220585D01*
X122535239Y-146220585D02*
X122535239Y-146339633D01*
X122535239Y-146339633D02*
X122511429Y-146434871D01*
X122511429Y-146434871D02*
X122487620Y-146482490D01*
X122487620Y-146482490D02*
X122463810Y-146506300D01*
X122463810Y-146506300D02*
X122416191Y-146530109D01*
X122416191Y-146530109D02*
X122368572Y-146530109D01*
X122368572Y-146530109D02*
X122320953Y-146506300D01*
X122320953Y-146506300D02*
X122297144Y-146482490D01*
X122297144Y-146482490D02*
X122273334Y-146434871D01*
X122273334Y-146434871D02*
X122249525Y-146339633D01*
X122249525Y-146339633D02*
X122249525Y-146220585D01*
X122249525Y-146220585D02*
X122273334Y-146125347D01*
X122273334Y-146125347D02*
X122297144Y-146077728D01*
X122297144Y-146077728D02*
X122320953Y-146053919D01*
X122320953Y-146053919D02*
X122368572Y-146030109D01*
X122749524Y-146482490D02*
X122773334Y-146506300D01*
X122773334Y-146506300D02*
X122749524Y-146530109D01*
X122749524Y-146530109D02*
X122725715Y-146506300D01*
X122725715Y-146506300D02*
X122749524Y-146482490D01*
X122749524Y-146482490D02*
X122749524Y-146530109D01*
X123249524Y-146530109D02*
X122963810Y-146530109D01*
X123106667Y-146530109D02*
X123106667Y-146030109D01*
X123106667Y-146030109D02*
X123059048Y-146101538D01*
X123059048Y-146101538D02*
X123011429Y-146149157D01*
X123011429Y-146149157D02*
X122963810Y-146172966D01*
X123678095Y-146196776D02*
X123678095Y-146530109D01*
X123463809Y-146196776D02*
X123463809Y-146458680D01*
X123463809Y-146458680D02*
X123487619Y-146506300D01*
X123487619Y-146506300D02*
X123535238Y-146530109D01*
X123535238Y-146530109D02*
X123606666Y-146530109D01*
X123606666Y-146530109D02*
X123654285Y-146506300D01*
X123654285Y-146506300D02*
X123678095Y-146482490D01*
X124082857Y-146268204D02*
X123916190Y-146268204D01*
X123916190Y-146530109D02*
X123916190Y-146030109D01*
X123916190Y-146030109D02*
X124154285Y-146030109D01*
D12*
X133532819Y-150193333D02*
X134247104Y-150193333D01*
X134247104Y-150193333D02*
X134389961Y-150240952D01*
X134389961Y-150240952D02*
X134485200Y-150336190D01*
X134485200Y-150336190D02*
X134532819Y-150479047D01*
X134532819Y-150479047D02*
X134532819Y-150574285D01*
X133628057Y-149764761D02*
X133580438Y-149717142D01*
X133580438Y-149717142D02*
X133532819Y-149621904D01*
X133532819Y-149621904D02*
X133532819Y-149383809D01*
X133532819Y-149383809D02*
X133580438Y-149288571D01*
X133580438Y-149288571D02*
X133628057Y-149240952D01*
X133628057Y-149240952D02*
X133723295Y-149193333D01*
X133723295Y-149193333D02*
X133818533Y-149193333D01*
X133818533Y-149193333D02*
X133961390Y-149240952D01*
X133961390Y-149240952D02*
X134532819Y-149812380D01*
X134532819Y-149812380D02*
X134532819Y-149193333D01*
D14*
%TO.C,Y2*%
X123212000Y-140186000D02*
X123212000Y-143786000D01*
X123212000Y-143786000D02*
X130462000Y-143786000D01*
X130462000Y-140186000D02*
X123212000Y-140186000D01*
%TO.C,Y1*%
X106912000Y-143996000D02*
X110512000Y-143996000D01*
X110512000Y-143996000D02*
X110512000Y-136746000D01*
X106912000Y-136746000D02*
X106912000Y-143996000D01*
D15*
%TO.C,U4*%
X122530000Y-130296000D02*
G75*
G02*
X122330000Y-130296000I-100000J0D01*
G01*
X122330000Y-130296000D02*
G75*
G02*
X122530000Y-130296000I100000J0D01*
G01*
D16*
X131770000Y-136596000D02*
X131665000Y-136596000D01*
X131770000Y-129596000D02*
X131665000Y-129596000D01*
X124770000Y-136596000D02*
X124875000Y-136596000D01*
X124770000Y-129596000D02*
X124875000Y-129596000D01*
X131770000Y-136596000D02*
X131770000Y-136491000D01*
X131770000Y-129596000D02*
X131770000Y-129701000D01*
X124770000Y-136596000D02*
X124770000Y-136491000D01*
X124770000Y-129596000D02*
X124770000Y-129701000D01*
D14*
%TO.C,U3*%
X113353000Y-131299000D02*
X113353000Y-131559000D01*
X113353000Y-136749000D02*
X113353000Y-136489000D01*
X116078000Y-131299000D02*
X113353000Y-131299000D01*
X116078000Y-131299000D02*
X118803000Y-131299000D01*
X116078000Y-136749000D02*
X113353000Y-136749000D01*
X116078000Y-136749000D02*
X118803000Y-136749000D01*
X118803000Y-131299000D02*
X118803000Y-131559000D01*
X118803000Y-136749000D02*
X118803000Y-136489000D01*
X112570500Y-131559000D02*
X112330500Y-131229000D01*
X112810500Y-131229000D01*
X112570500Y-131559000D01*
G36*
X112570500Y-131559000D02*
G01*
X112330500Y-131229000D01*
X112810500Y-131229000D01*
X112570500Y-131559000D01*
G37*
%TO.C,U2*%
X113353000Y-124529000D02*
X113353000Y-124789000D01*
X113353000Y-129979000D02*
X113353000Y-129719000D01*
X116078000Y-124529000D02*
X113353000Y-124529000D01*
X116078000Y-124529000D02*
X118803000Y-124529000D01*
X116078000Y-129979000D02*
X113353000Y-129979000D01*
X116078000Y-129979000D02*
X118803000Y-129979000D01*
X118803000Y-124529000D02*
X118803000Y-124789000D01*
X118803000Y-129979000D02*
X118803000Y-129719000D01*
X112570500Y-124789000D02*
X112330500Y-124459000D01*
X112810500Y-124459000D01*
X112570500Y-124789000D01*
G36*
X112570500Y-124789000D02*
G01*
X112330500Y-124459000D01*
X112810500Y-124459000D01*
X112570500Y-124789000D01*
G37*
D16*
%TO.C,U1*%
X114078000Y-143744000D02*
X118078000Y-143744000D01*
X114078000Y-138704000D02*
X118078000Y-138704000D01*
D15*
X111733000Y-138729000D02*
G75*
G02*
X111533000Y-138729000I-100000J0D01*
G01*
X111533000Y-138729000D02*
G75*
G02*
X111733000Y-138729000I100000J0D01*
G01*
D14*
%TO.C,R7*%
X136625064Y-124687000D02*
X136170936Y-124687000D01*
X136625064Y-123217000D02*
X136170936Y-123217000D01*
%TO.C,R6*%
X141300564Y-129259000D02*
X140846436Y-129259000D01*
X141300564Y-127789000D02*
X140846436Y-127789000D01*
%TO.C,R5*%
X144753064Y-126719000D02*
X144298936Y-126719000D01*
X144753064Y-125249000D02*
X144298936Y-125249000D01*
%TO.C,R4*%
X133172564Y-124687000D02*
X132718436Y-124687000D01*
X133172564Y-123217000D02*
X132718436Y-123217000D01*
%TO.C,R3*%
X144402436Y-127789000D02*
X144856564Y-127789000D01*
X144402436Y-129259000D02*
X144856564Y-129259000D01*
%TO.C,R2*%
X117882936Y-145061000D02*
X118337064Y-145061000D01*
X117882936Y-146531000D02*
X118337064Y-146531000D01*
%TO.C,R1*%
X114273064Y-145061000D02*
X113818936Y-145061000D01*
X114273064Y-146531000D02*
X113818936Y-146531000D01*
%TO.C,J4*%
X148276000Y-127194000D02*
X149606000Y-127194000D01*
X148276000Y-128524000D02*
X148276000Y-127194000D01*
X148276000Y-129794000D02*
X148276000Y-134934000D01*
X148276000Y-129794000D02*
X150876000Y-129794000D01*
X148276000Y-134934000D02*
X153476000Y-134934000D01*
X150876000Y-127194000D02*
X153476000Y-127194000D01*
X150876000Y-129794000D02*
X150876000Y-127194000D01*
X153476000Y-127194000D02*
X153476000Y-134934000D01*
%TO.C,J3*%
X109668000Y-151190000D02*
X109668000Y-149860000D01*
X110998000Y-151190000D02*
X109668000Y-151190000D01*
X112268000Y-151190000D02*
X132648000Y-151190000D01*
X112268000Y-151190000D02*
X112268000Y-148530000D01*
X132648000Y-151190000D02*
X132648000Y-148530000D01*
X112268000Y-148530000D02*
X132648000Y-148530000D01*
%TO.C,J1*%
X150816000Y-136084000D02*
X152146000Y-136084000D01*
X150816000Y-137414000D02*
X150816000Y-136084000D01*
X150816000Y-138684000D02*
X150816000Y-146364000D01*
X150816000Y-138684000D02*
X153476000Y-138684000D01*
X150816000Y-146364000D02*
X153476000Y-146364000D01*
X153476000Y-138684000D02*
X153476000Y-146364000D01*
%TO.C,D2*%
X139031000Y-122992000D02*
X139031000Y-124912000D01*
X139031000Y-124912000D02*
X141716000Y-124912000D01*
X141716000Y-122992000D02*
X139031000Y-122992000D01*
%TO.C,D1*%
X146211000Y-124912000D02*
X146211000Y-122992000D01*
X146211000Y-122992000D02*
X143526000Y-122992000D01*
X143526000Y-124912000D02*
X146211000Y-124912000D01*
%TO.C,C5*%
X110971000Y-125788748D02*
X110971000Y-126311252D01*
X109501000Y-125788748D02*
X109501000Y-126311252D01*
%TO.C,C4*%
X136202748Y-125249000D02*
X136725252Y-125249000D01*
X136202748Y-126719000D02*
X136725252Y-126719000D01*
%TO.C,C3*%
X129598748Y-144299000D02*
X130121252Y-144299000D01*
X129598748Y-145769000D02*
X130121252Y-145769000D01*
%TO.C,C2*%
X126499252Y-145769000D02*
X125976748Y-145769000D01*
X126499252Y-144299000D02*
X125976748Y-144299000D01*
%TO.C,C1*%
X123009252Y-145769000D02*
X122486748Y-145769000D01*
X123009252Y-144299000D02*
X122486748Y-144299000D01*
%TO.C,BT1+-*%
X106874000Y-128459000D02*
X108204000Y-128459000D01*
X106874000Y-129789000D02*
X106874000Y-128459000D01*
X106874000Y-131059000D02*
X106874000Y-133659000D01*
X106874000Y-131059000D02*
X109534000Y-131059000D01*
X106874000Y-133659000D02*
X109534000Y-133659000D01*
X109534000Y-131059000D02*
X109534000Y-133659000D01*
%TO.C,J2*%
X135078000Y-151190000D02*
X135078000Y-149860000D01*
X136408000Y-151190000D02*
X135078000Y-151190000D01*
X137678000Y-151190000D02*
X145358000Y-151190000D01*
X137678000Y-151190000D02*
X137678000Y-148530000D01*
X145358000Y-151190000D02*
X145358000Y-148530000D01*
X137678000Y-148530000D02*
X145358000Y-148530000D01*
%TD*%
M02*
