%TF.GenerationSoftware,KiCad,Pcbnew,8.0.6*%
%TF.CreationDate,2025-03-25T13:24:27+01:00*%
%TF.ProjectId,MCU Datalogger,4d435520-4461-4746-916c-6f676765722e,1*%
%TF.SameCoordinates,Original*%
%TF.FileFunction,Copper,L1,Top*%
%TF.FilePolarity,Positive*%
%FSLAX46Y46*%
G04 Gerber Fmt 4.6, Leading zero omitted, Abs format (unit mm)*
G04 Created by KiCad (PCBNEW 8.0.6) date 2025-03-25 13:24:27*
%MOMM*%
%LPD*%
G01*
G04 APERTURE LIST*
G04 Aperture macros list*
%AMRoundRect*
0 Rectangle with rounded corners*
0 $1 Rounding radius*
0 $2 $3 $4 $5 $6 $7 $8 $9 X,Y pos of 4 corners*
0 Add a 4 corners polygon primitive as box body*
4,1,4,$2,$3,$4,$5,$6,$7,$8,$9,$2,$3,0*
0 Add four circle primitives for the rounded corners*
1,1,$1+$1,$2,$3*
1,1,$1+$1,$4,$5*
1,1,$1+$1,$6,$7*
1,1,$1+$1,$8,$9*
0 Add four rect primitives between the rounded corners*
20,1,$1+$1,$2,$3,$4,$5,0*
20,1,$1+$1,$4,$5,$6,$7,0*
20,1,$1+$1,$6,$7,$8,$9,0*
20,1,$1+$1,$8,$9,$2,$3,0*%
G04 Aperture macros list end*
%TA.AperFunction,SMDPad,CuDef*%
%ADD10R,3.500000X2.400000*%
%TD*%
%TA.AperFunction,SMDPad,CuDef*%
%ADD11R,2.400000X3.500000*%
%TD*%
%TA.AperFunction,SMDPad,CuDef*%
%ADD12RoundRect,0.068750X-0.206250X-0.666250X0.206250X-0.666250X0.206250X0.666250X-0.206250X0.666250X0*%
%TD*%
%TA.AperFunction,SMDPad,CuDef*%
%ADD13RoundRect,0.068750X-0.666250X-0.206250X0.666250X-0.206250X0.666250X0.206250X-0.666250X0.206250X0*%
%TD*%
%TA.AperFunction,SMDPad,CuDef*%
%ADD14RoundRect,0.150000X-0.650000X-0.150000X0.650000X-0.150000X0.650000X0.150000X-0.650000X0.150000X0*%
%TD*%
%TA.AperFunction,SMDPad,CuDef*%
%ADD15RoundRect,0.073750X-0.911250X-0.221250X0.911250X-0.221250X0.911250X0.221250X-0.911250X0.221250X0*%
%TD*%
%TA.AperFunction,SMDPad,CuDef*%
%ADD16RoundRect,0.250000X0.262500X0.450000X-0.262500X0.450000X-0.262500X-0.450000X0.262500X-0.450000X0*%
%TD*%
%TA.AperFunction,SMDPad,CuDef*%
%ADD17RoundRect,0.250000X-0.262500X-0.450000X0.262500X-0.450000X0.262500X0.450000X-0.262500X0.450000X0*%
%TD*%
%TA.AperFunction,ComponentPad*%
%ADD18R,1.700000X1.700000*%
%TD*%
%TA.AperFunction,ComponentPad*%
%ADD19O,1.700000X1.700000*%
%TD*%
%TA.AperFunction,SMDPad,CuDef*%
%ADD20RoundRect,0.243750X-0.243750X-0.456250X0.243750X-0.456250X0.243750X0.456250X-0.243750X0.456250X0*%
%TD*%
%TA.AperFunction,SMDPad,CuDef*%
%ADD21RoundRect,0.243750X0.243750X0.456250X-0.243750X0.456250X-0.243750X-0.456250X0.243750X-0.456250X0*%
%TD*%
%TA.AperFunction,SMDPad,CuDef*%
%ADD22RoundRect,0.250000X-0.475000X0.250000X-0.475000X-0.250000X0.475000X-0.250000X0.475000X0.250000X0*%
%TD*%
%TA.AperFunction,SMDPad,CuDef*%
%ADD23RoundRect,0.250000X-0.250000X-0.475000X0.250000X-0.475000X0.250000X0.475000X-0.250000X0.475000X0*%
%TD*%
%TA.AperFunction,SMDPad,CuDef*%
%ADD24RoundRect,0.250000X0.250000X0.475000X-0.250000X0.475000X-0.250000X-0.475000X0.250000X-0.475000X0*%
%TD*%
%TA.AperFunction,ViaPad*%
%ADD25C,0.800000*%
%TD*%
%TA.AperFunction,Conductor*%
%ADD26C,0.350000*%
%TD*%
%TA.AperFunction,Conductor*%
%ADD27C,0.250000*%
%TD*%
G04 APERTURE END LIST*
D10*
%TO.P,Y2,1,1*%
%TO.N,Net-(U4-PB6)*%
X125162000Y-141986000D03*
%TO.P,Y2,2,2*%
%TO.N,Net-(U4-PB7)*%
X130362000Y-141986000D03*
%TD*%
D11*
%TO.P,Y1,1,1*%
%TO.N,Net-(U1-X2)*%
X108712000Y-142046000D03*
%TO.P,Y1,2,2*%
%TO.N,Net-(U1-X1)*%
X108712000Y-136846000D03*
%TD*%
D12*
%TO.P,U4,9,PD5*%
%TO.N,/D5*%
X125470000Y-137266000D03*
%TO.P,U4,10,PD6*%
%TO.N,/D6*%
X126270000Y-137266000D03*
%TO.P,U4,11,PD7*%
%TO.N,/D7*%
X127070000Y-137266000D03*
%TO.P,U4,12,PB0*%
%TO.N,/D8*%
X127870000Y-137266000D03*
%TO.P,U4,13,PB1*%
%TO.N,unconnected-(U4-PB1-Pad13)*%
X128670000Y-137266000D03*
%TO.P,U4,14,PB2*%
%TO.N,unconnected-(U4-PB2-Pad14)*%
X129470000Y-137266000D03*
%TO.P,U4,15,PB3*%
%TO.N,/MOSI*%
X130270000Y-137266000D03*
%TO.P,U4,16,PB4*%
%TO.N,/MISO*%
X131070000Y-137266000D03*
%TO.P,U4,25,PC2*%
%TO.N,unconnected-(U4-PC2-Pad25)*%
X131070000Y-128926000D03*
%TO.P,U4,26,PC3*%
%TO.N,unconnected-(U4-PC3-Pad26)*%
X130270000Y-128926000D03*
%TO.P,U4,27,PC4*%
%TO.N,/SDA*%
X129470000Y-128926000D03*
%TO.P,U4,28,PC5*%
%TO.N,/SCL*%
X128670000Y-128926000D03*
%TO.P,U4,29,PC6/~{RESET}*%
%TO.N,/RESET*%
X127870000Y-128926000D03*
%TO.P,U4,30,PD0*%
%TO.N,/RX*%
X127070000Y-128926000D03*
%TO.P,U4,31,PD1*%
%TO.N,/TX*%
X126270000Y-128926000D03*
%TO.P,U4,32,PD2*%
%TO.N,/D2*%
X125470000Y-128926000D03*
D13*
%TO.P,U4,1,PD3*%
%TO.N,/D3*%
X124100000Y-130296000D03*
%TO.P,U4,2,PD4*%
%TO.N,/D4*%
X124100000Y-131096000D03*
%TO.P,U4,3,GND*%
%TO.N,GND*%
X124100000Y-131896000D03*
%TO.P,U4,4,VCC*%
%TO.N,Net-(BT1-+)*%
X124100000Y-132696000D03*
%TO.P,U4,5,GND*%
%TO.N,GND*%
X124100000Y-133496000D03*
%TO.P,U4,6,VCC*%
%TO.N,unconnected-(U4-VCC-Pad6)*%
X124100000Y-134296000D03*
%TO.P,U4,7,PB6*%
%TO.N,Net-(U4-PB6)*%
X124100000Y-135096000D03*
%TO.P,U4,8,PB7*%
%TO.N,Net-(U4-PB7)*%
X124100000Y-135896000D03*
%TO.P,U4,17,PB5*%
%TO.N,/SCK*%
X132440000Y-135896000D03*
%TO.P,U4,18,AVCC*%
%TO.N,Net-(BT1-+)*%
X132440000Y-135096000D03*
%TO.P,U4,19,ADC6*%
%TO.N,unconnected-(U4-ADC6-Pad19)*%
X132440000Y-134296000D03*
%TO.P,U4,20,AREF*%
%TO.N,Net-(U4-AREF)*%
X132440000Y-133496000D03*
%TO.P,U4,21,GND*%
%TO.N,GND*%
X132440000Y-132696000D03*
%TO.P,U4,22,ADC7*%
%TO.N,unconnected-(U4-ADC7-Pad22)*%
X132440000Y-131896000D03*
%TO.P,U4,23,PC0*%
%TO.N,unconnected-(U4-PC0-Pad23)*%
X132440000Y-131096000D03*
%TO.P,U4,24,PC1*%
%TO.N,unconnected-(U4-PC1-Pad24)*%
X132440000Y-130296000D03*
%TD*%
D14*
%TO.P,U3,1,A0*%
%TO.N,/Vcc*%
X112478000Y-132119000D03*
%TO.P,U3,2,A1*%
%TO.N,GND*%
X112478000Y-133389000D03*
%TO.P,U3,3,A2*%
%TO.N,/Vcc*%
X112478000Y-134659000D03*
%TO.P,U3,4,GND*%
%TO.N,GND*%
X112478000Y-135929000D03*
%TO.P,U3,5,SDA*%
%TO.N,/SDA*%
X119678000Y-135929000D03*
%TO.P,U3,6,SCL*%
%TO.N,/SCL*%
X119678000Y-134659000D03*
%TO.P,U3,7,WP*%
%TO.N,GND*%
X119678000Y-133389000D03*
%TO.P,U3,8,VCC*%
%TO.N,/Vcc*%
X119678000Y-132119000D03*
%TD*%
%TO.P,U2,1,A0*%
%TO.N,/Vcc*%
X112478000Y-125349000D03*
%TO.P,U2,2,A1*%
X112478000Y-126619000D03*
%TO.P,U2,3,A2*%
X112478000Y-127889000D03*
%TO.P,U2,4,GND*%
%TO.N,GND*%
X112478000Y-129159000D03*
%TO.P,U2,5,SDA*%
%TO.N,/SDA*%
X119678000Y-129159000D03*
%TO.P,U2,6,SCL*%
%TO.N,/SCL*%
X119678000Y-127889000D03*
%TO.P,U2,7,WP*%
%TO.N,GND*%
X119678000Y-126619000D03*
%TO.P,U2,8,VCC*%
%TO.N,/Vcc*%
X119678000Y-125349000D03*
%TD*%
D15*
%TO.P,U1,8,VCC*%
%TO.N,/Vcc*%
X118553000Y-139319000D03*
%TO.P,U1,7,SQW/~INT*%
%TO.N,Net-(U1-SQW{slash}~INT)*%
X118553000Y-140589000D03*
%TO.P,U1,6,SCL*%
%TO.N,/SCL*%
X118553000Y-141859000D03*
%TO.P,U1,5,SDA*%
%TO.N,/SDA*%
X118553000Y-143129000D03*
%TO.P,U1,4,GND*%
%TO.N,GND*%
X113603000Y-143129000D03*
%TO.P,U1,3,~{INTA}*%
%TO.N,Net-(U1-~{INTA})*%
X113603000Y-141859000D03*
%TO.P,U1,2,X2*%
%TO.N,Net-(U1-X2)*%
X113603000Y-140589000D03*
%TO.P,U1,1,X1*%
%TO.N,Net-(U1-X1)*%
X113603000Y-139319000D03*
%TD*%
D16*
%TO.P,R7,1*%
%TO.N,Net-(D2-K)*%
X137310500Y-123952000D03*
%TO.P,R7,2*%
%TO.N,GND*%
X135485500Y-123952000D03*
%TD*%
%TO.P,R6,1*%
%TO.N,/Vcc*%
X141986000Y-128524000D03*
%TO.P,R6,2*%
%TO.N,/RESET*%
X140161000Y-128524000D03*
%TD*%
%TO.P,R5,1*%
%TO.N,GND*%
X145438500Y-125984000D03*
%TO.P,R5,2*%
%TO.N,Net-(D1-K)*%
X143613500Y-125984000D03*
%TD*%
%TO.P,R4,1*%
%TO.N,/Vcc*%
X133858000Y-123952000D03*
%TO.P,R4,2*%
%TO.N,/SDA*%
X132033000Y-123952000D03*
%TD*%
D17*
%TO.P,R3,1*%
%TO.N,/Vcc*%
X143717000Y-128524000D03*
%TO.P,R3,2*%
%TO.N,/SCL*%
X145542000Y-128524000D03*
%TD*%
%TO.P,R2,1*%
%TO.N,/Vcc*%
X117197500Y-145796000D03*
%TO.P,R2,2*%
%TO.N,Net-(U1-SQW{slash}~INT)*%
X119022500Y-145796000D03*
%TD*%
D16*
%TO.P,R1,2*%
%TO.N,Net-(U1-~{INTA})*%
X113133500Y-145796000D03*
%TO.P,R1,1*%
%TO.N,/Vcc*%
X114958500Y-145796000D03*
%TD*%
D18*
%TO.P,J4,1,Pin_1*%
%TO.N,/MISO*%
X149606000Y-128524000D03*
D19*
%TO.P,J4,2,Pin_2*%
%TO.N,/Vcc*%
X152146000Y-128524000D03*
%TO.P,J4,3,Pin_3*%
%TO.N,/SCL*%
X149606000Y-131064000D03*
%TO.P,J4,4,Pin_4*%
%TO.N,/MOSI*%
X152146000Y-131064000D03*
%TO.P,J4,5,Pin_5*%
%TO.N,/RESET*%
X149606000Y-133604000D03*
%TO.P,J4,6,Pin_6*%
%TO.N,GND*%
X152146000Y-133604000D03*
%TD*%
D18*
%TO.P,J3,1,Pin_1*%
%TO.N,/D2*%
X110998000Y-149860000D03*
D19*
%TO.P,J3,2,Pin_2*%
%TO.N,/D3*%
X113538000Y-149860000D03*
%TO.P,J3,3,Pin_3*%
%TO.N,/D4*%
X116078000Y-149860000D03*
%TO.P,J3,4,Pin_4*%
%TO.N,/D5*%
X118618000Y-149860000D03*
%TO.P,J3,5,Pin_5*%
%TO.N,/D6*%
X121158000Y-149860000D03*
%TO.P,J3,6,Pin_6*%
%TO.N,/D7*%
X123698000Y-149860000D03*
%TO.P,J3,7,Pin_7*%
%TO.N,/D8*%
X126238000Y-149860000D03*
%TO.P,J3,8,Pin_8*%
%TO.N,GND*%
X128778000Y-149860000D03*
%TO.P,J3,9,Pin_9*%
%TO.N,/Vcc*%
X131318000Y-149860000D03*
%TD*%
D18*
%TO.P,J1,1,Pin_1*%
%TO.N,GND*%
X152146000Y-137414000D03*
D19*
%TO.P,J1,2,Pin_2*%
%TO.N,/Vcc*%
X152146000Y-139954000D03*
%TO.P,J1,3,Pin_3*%
%TO.N,/SDA*%
X152146000Y-142494000D03*
%TO.P,J1,4,Pin_4*%
%TO.N,/SCL*%
X152146000Y-145034000D03*
%TD*%
D20*
%TO.P,D2,1,K*%
%TO.N,Net-(D2-K)*%
X139778500Y-123952000D03*
%TO.P,D2,2,A*%
%TO.N,Net-(BT1-+)*%
X141653500Y-123952000D03*
%TD*%
D21*
%TO.P,D1,1,K*%
%TO.N,Net-(D1-K)*%
X145463500Y-123952000D03*
%TO.P,D1,2,A*%
%TO.N,/SCK*%
X143588500Y-123952000D03*
%TD*%
D22*
%TO.P,C5,1*%
%TO.N,Net-(BT1-+)*%
X110236000Y-125100000D03*
%TO.P,C5,2*%
%TO.N,GND*%
X110236000Y-127000000D03*
%TD*%
D23*
%TO.P,C4,1*%
%TO.N,GND*%
X135514000Y-125984000D03*
%TO.P,C4,2*%
%TO.N,Net-(U4-AREF)*%
X137414000Y-125984000D03*
%TD*%
%TO.P,C3,1*%
%TO.N,GND*%
X128910000Y-145034000D03*
%TO.P,C3,2*%
%TO.N,Net-(U4-PB7)*%
X130810000Y-145034000D03*
%TD*%
D24*
%TO.P,C2,1*%
%TO.N,GND*%
X127188000Y-145034000D03*
%TO.P,C2,2*%
%TO.N,Net-(U4-PB6)*%
X125288000Y-145034000D03*
%TD*%
%TO.P,C1,1*%
%TO.N,/Vcc*%
X123698000Y-145034000D03*
%TO.P,C1,2*%
%TO.N,GND*%
X121798000Y-145034000D03*
%TD*%
D18*
%TO.P,BT1+-,1,+*%
%TO.N,Net-(BT1-+)*%
X108204000Y-129789000D03*
D19*
%TO.P,BT1+-,2,-*%
%TO.N,GND*%
X108204000Y-132329000D03*
%TD*%
D18*
%TO.P,J2,1,Pin_1*%
%TO.N,GND*%
X136408000Y-149860000D03*
D19*
%TO.P,J2,2,Pin_2*%
%TO.N,/Vcc*%
X138948000Y-149860000D03*
%TO.P,J2,3,Pin_3*%
%TO.N,/RX*%
X141488000Y-149860000D03*
%TO.P,J2,4,Pin_4*%
%TO.N,/TX*%
X144028000Y-149860000D03*
%TD*%
D25*
%TO.N,GND*%
X121859000Y-145095000D03*
X121920000Y-141986000D03*
%TO.N,/Vcc*%
X118618000Y-139319000D03*
%TO.N,GND*%
X110236000Y-127000000D03*
%TO.N,/Vcc*%
X112478000Y-127889000D03*
X112478000Y-134659000D03*
X133858000Y-123952000D03*
X141986000Y-128524000D03*
%TO.N,/SDA*%
X130810000Y-130556000D03*
X122428000Y-129032000D03*
%TO.N,/SCL*%
X131064000Y-132080000D03*
X118110000Y-134366000D03*
X118110000Y-128778000D03*
%TO.N,/SDA*%
X119678000Y-129159000D03*
%TO.N,/SCL*%
X122428000Y-127762000D03*
X119678000Y-127889000D03*
%TO.N,/SDA*%
X116332000Y-137160000D03*
X119678000Y-135929000D03*
%TO.N,/SCL*%
X145542000Y-128524000D03*
%TO.N,/RESET*%
X140208000Y-128524000D03*
X127508000Y-127254000D03*
%TO.N,/RX*%
X127508000Y-132080000D03*
%TO.N,/TX*%
X126492000Y-130302000D03*
%TO.N,/D8*%
X127762000Y-139700000D03*
%TO.N,/D7*%
X127000000Y-138684000D03*
%TO.N,/D6*%
X126238000Y-139446000D03*
%TO.N,/D5*%
X125476000Y-138684000D03*
%TO.N,/D4*%
X126492000Y-131318000D03*
%TO.N,/D3*%
X122682000Y-130302000D03*
%TO.N,/D2*%
X125476000Y-130556000D03*
%TD*%
D26*
%TO.N,GND*%
X121859000Y-145095000D02*
X121798000Y-145034000D01*
X119678000Y-133389000D02*
X120477999Y-133389000D01*
X120477999Y-133389000D02*
X120904000Y-133815001D01*
X120904000Y-133815001D02*
X120904000Y-140970000D01*
X120904000Y-140970000D02*
X121920000Y-141986000D01*
D27*
%TO.N,/Vcc*%
X120923000Y-145774810D02*
X120923000Y-144128810D01*
X120923000Y-144128810D02*
X121541810Y-143510000D01*
X121541810Y-143510000D02*
X121666000Y-143510000D01*
X122090000Y-143934000D02*
X121666000Y-143510000D01*
X121666000Y-143510000D02*
X121581604Y-143425604D01*
X123698000Y-145034000D02*
X122598000Y-143934000D01*
X122598000Y-143934000D02*
X122090000Y-143934000D01*
X118618000Y-139319000D02*
X118981462Y-139319000D01*
X120313000Y-140650538D02*
X120313000Y-142157000D01*
X118981462Y-139319000D02*
X120313000Y-140650538D01*
X120313000Y-142157000D02*
X121581604Y-143425604D01*
D26*
%TO.N,GND*%
X135485500Y-123952000D02*
X135485500Y-125955500D01*
X135485500Y-125955500D02*
X135514000Y-125984000D01*
X136408000Y-149860000D02*
X137704983Y-148563017D01*
X137704983Y-148563017D02*
X150420106Y-148563017D01*
X150420106Y-148563017D02*
X153630000Y-145353123D01*
X153630000Y-138898000D02*
X152146000Y-137414000D01*
X153630000Y-145353123D02*
X153630000Y-138898000D01*
X112478000Y-129159000D02*
X113277999Y-129159000D01*
X115817999Y-126619000D02*
X119678000Y-126619000D01*
X113277999Y-129159000D02*
X115817999Y-126619000D01*
D27*
%TO.N,/Vcc*%
X117197500Y-145796000D02*
X118222500Y-146821000D01*
X118222500Y-146821000D02*
X119876810Y-146821000D01*
X119876810Y-146821000D02*
X120923000Y-145774810D01*
D26*
%TO.N,GND*%
X136408000Y-149860000D02*
X135133000Y-148585000D01*
X135133000Y-148585000D02*
X130053000Y-148585000D01*
X130053000Y-148585000D02*
X128778000Y-149860000D01*
D27*
%TO.N,/Vcc*%
X138948000Y-149860000D02*
X137723000Y-151085000D01*
X137723000Y-151085000D02*
X132543000Y-151085000D01*
X132543000Y-151085000D02*
X131318000Y-149860000D01*
%TO.N,/SDA*%
X130810000Y-130556000D02*
X130365000Y-130556000D01*
X130365000Y-130556000D02*
X129470000Y-129661000D01*
X129470000Y-129661000D02*
X129470000Y-128926000D01*
%TO.N,/SCL*%
X128670000Y-129686000D02*
X128670000Y-128926000D01*
X131064000Y-132080000D02*
X128670000Y-129686000D01*
%TO.N,/SDA*%
X129470000Y-128926000D02*
X129470000Y-127554299D01*
X121666000Y-127498695D02*
X121666000Y-128025305D01*
X122428000Y-128778000D02*
X122428000Y-129032000D01*
X129470000Y-127554299D02*
X127994701Y-126079000D01*
X122127695Y-128487000D02*
X122137000Y-128487000D01*
X123085695Y-126079000D02*
X121666000Y-127498695D01*
X127994701Y-126079000D02*
X123085695Y-126079000D01*
X121666000Y-128025305D02*
X122127695Y-128487000D01*
X122137000Y-128487000D02*
X122428000Y-128778000D01*
D26*
%TO.N,GND*%
X124100000Y-131896000D02*
X122244000Y-131896000D01*
X120269000Y-126619000D02*
X119678000Y-126619000D01*
X122244000Y-131896000D02*
X120903000Y-130555000D01*
X120903000Y-130555000D02*
X120903000Y-127253000D01*
X120903000Y-127253000D02*
X120269000Y-126619000D01*
D27*
%TO.N,/Vcc*%
X133858000Y-123952000D02*
X132833000Y-122927000D01*
X132833000Y-122927000D02*
X122100000Y-122927000D01*
X122100000Y-122927000D02*
X119678000Y-125349000D01*
%TO.N,Net-(BT1-+)*%
X110236000Y-125100000D02*
X108204000Y-127132000D01*
X108204000Y-127132000D02*
X108204000Y-129789000D01*
D26*
%TO.N,GND*%
X110236000Y-127000000D02*
X110236000Y-127500000D01*
X110236000Y-127500000D02*
X111895000Y-129159000D01*
X111895000Y-129159000D02*
X112478000Y-129159000D01*
D27*
%TO.N,/SCL*%
X117094000Y-137037092D02*
X118683546Y-135447546D01*
X118683546Y-135447546D02*
X119472092Y-134659000D01*
X118110000Y-134366000D02*
X118110000Y-134874000D01*
X118110000Y-134874000D02*
X118683546Y-135447546D01*
X118999000Y-127889000D02*
X118110000Y-128778000D01*
X119678000Y-127889000D02*
X118999000Y-127889000D01*
%TO.N,Net-(BT1-+)*%
X124100000Y-132696000D02*
X121730908Y-132696000D01*
X121730908Y-132696000D02*
X118868908Y-129834000D01*
X108249000Y-129834000D02*
X108204000Y-129789000D01*
X118868908Y-129834000D02*
X108249000Y-129834000D01*
%TO.N,/SCL*%
X123661000Y-126529000D02*
X122428000Y-127762000D01*
X128670000Y-127390695D02*
X127808305Y-126529000D01*
X127808305Y-126529000D02*
X123661000Y-126529000D01*
X128670000Y-128926000D02*
X128670000Y-127390695D01*
%TO.N,/SDA*%
X118553000Y-143129000D02*
X117568000Y-143129000D01*
X117568000Y-143129000D02*
X116332000Y-141893000D01*
X116332000Y-141893000D02*
X116332000Y-137160000D01*
%TO.N,/SCL*%
X152146000Y-145034000D02*
X150781000Y-143669000D01*
X150781000Y-143669000D02*
X150781000Y-132239000D01*
X150781000Y-132239000D02*
X149606000Y-131064000D01*
D26*
%TO.N,GND*%
X152146000Y-133604000D02*
X152146000Y-137414000D01*
X145438500Y-125984000D02*
X151409123Y-125984000D01*
X151409123Y-125984000D02*
X153421000Y-127995877D01*
X153421000Y-127995877D02*
X153421000Y-132329000D01*
X153421000Y-132329000D02*
X152146000Y-133604000D01*
D27*
%TO.N,/Vcc*%
X152146000Y-128524000D02*
X150971000Y-127349000D01*
X144892000Y-127349000D02*
X143717000Y-128524000D01*
X150971000Y-127349000D02*
X144892000Y-127349000D01*
%TO.N,/MOSI*%
X152146000Y-131064000D02*
X150971000Y-129889000D01*
X150971000Y-129889000D02*
X149119299Y-129889000D01*
X149119299Y-129889000D02*
X148960299Y-130048000D01*
X132077648Y-138326000D02*
X130595000Y-138326000D01*
X130270000Y-138001000D02*
X130270000Y-137266000D01*
X148960299Y-130048000D02*
X138050396Y-130048000D01*
X138050396Y-130048000D02*
X136034198Y-132064198D01*
X136034198Y-132064198D02*
X136034198Y-134369450D01*
X136034198Y-134369450D02*
X132077648Y-138326000D01*
X130595000Y-138326000D02*
X130270000Y-138001000D01*
%TO.N,/MISO*%
X149606000Y-128524000D02*
X148581000Y-129549000D01*
X132501252Y-137266000D02*
X131070000Y-137266000D01*
X148581000Y-129549000D02*
X137913000Y-129549000D01*
X137913000Y-129549000D02*
X135584198Y-131877802D01*
X135584198Y-131877802D02*
X135584198Y-134183054D01*
X135584198Y-134183054D02*
X132501252Y-137266000D01*
D26*
%TO.N,GND*%
X145438500Y-125984000D02*
X146376000Y-125046500D01*
X136610500Y-122827000D02*
X135485500Y-123952000D01*
X146376000Y-125046500D02*
X146376000Y-123211990D01*
X146376000Y-123211990D02*
X145991010Y-122827000D01*
X145991010Y-122827000D02*
X136610500Y-122827000D01*
D27*
%TO.N,/Vcc*%
X141986000Y-128524000D02*
X143717000Y-128524000D01*
%TO.N,/RESET*%
X127508000Y-127829000D02*
X127508000Y-127254000D01*
X127870000Y-128191000D02*
X127508000Y-127829000D01*
X127870000Y-128926000D02*
X127870000Y-128191000D01*
%TO.N,/RX*%
X127508000Y-132080000D02*
X127508000Y-130099000D01*
X127508000Y-130099000D02*
X127070000Y-129661000D01*
X127070000Y-129661000D02*
X127070000Y-128926000D01*
%TO.N,/TX*%
X126492000Y-130302000D02*
X126270000Y-130080000D01*
X126270000Y-130080000D02*
X126270000Y-128926000D01*
%TO.N,/SCL*%
X119551000Y-127762000D02*
X119678000Y-127889000D01*
X118553000Y-141859000D02*
X117568000Y-141859000D01*
X119472092Y-134659000D02*
X119678000Y-134659000D01*
X117568000Y-141859000D02*
X117094000Y-141385000D01*
X117094000Y-141385000D02*
X117094000Y-137037092D01*
%TO.N,/Vcc*%
X131318000Y-149860000D02*
X130093000Y-151085000D01*
X130093000Y-151085000D02*
X128225000Y-151085000D01*
X124890000Y-146734000D02*
X121882190Y-146734000D01*
X128225000Y-151085000D02*
X127413000Y-150273000D01*
X127413000Y-150273000D02*
X127413000Y-149257000D01*
X127413000Y-149257000D02*
X124890000Y-146734000D01*
X121882190Y-146734000D02*
X120923000Y-145774810D01*
D26*
%TO.N,GND*%
X108204000Y-132329000D02*
X111804000Y-135929000D01*
X111804000Y-135929000D02*
X112478000Y-135929000D01*
X113603000Y-143129000D02*
X114588000Y-143129000D01*
X114588000Y-143129000D02*
X115013000Y-142704000D01*
X115013000Y-142704000D02*
X115013000Y-138464000D01*
X115013000Y-138464000D02*
X112478000Y-135929000D01*
X127188000Y-145034000D02*
X126038000Y-146184000D01*
X126038000Y-146184000D02*
X122948000Y-146184000D01*
X122948000Y-146184000D02*
X121859000Y-145095000D01*
X128910000Y-145034000D02*
X128910000Y-149728000D01*
X128910000Y-149728000D02*
X128778000Y-149860000D01*
D27*
%TO.N,/D8*%
X127762000Y-139700000D02*
X127762000Y-137374000D01*
X127762000Y-137374000D02*
X127870000Y-137266000D01*
%TO.N,/D7*%
X127000000Y-138684000D02*
X127000000Y-137336000D01*
X127000000Y-137336000D02*
X127070000Y-137266000D01*
%TO.N,/D6*%
X126238000Y-139446000D02*
X126238000Y-137298000D01*
X126238000Y-137298000D02*
X126270000Y-137266000D01*
%TO.N,/D5*%
X125476000Y-138684000D02*
X125476000Y-137272000D01*
X125476000Y-137272000D02*
X125470000Y-137266000D01*
%TO.N,/SDA*%
X132033000Y-126389000D02*
X130556000Y-127866000D01*
X132033000Y-123952000D02*
X132033000Y-126389000D01*
X129470000Y-128191000D02*
X129470000Y-128926000D01*
X130556000Y-127866000D02*
X129795000Y-127866000D01*
X129795000Y-127866000D02*
X129470000Y-128191000D01*
D26*
%TO.N,GND*%
X120103000Y-133389000D02*
X119678000Y-133389000D01*
D27*
%TO.N,Net-(BT1-+)*%
X124100000Y-132696000D02*
X124835000Y-132696000D01*
X124835000Y-132696000D02*
X125743000Y-133604000D01*
X130048000Y-133604000D02*
X131540000Y-135096000D01*
X125743000Y-133604000D02*
X130048000Y-133604000D01*
X131540000Y-135096000D02*
X132440000Y-135096000D01*
%TO.N,/D4*%
X126492000Y-131318000D02*
X126455000Y-131281000D01*
X126455000Y-131281000D02*
X125175695Y-131281000D01*
X125175695Y-131281000D02*
X124990695Y-131096000D01*
X124990695Y-131096000D02*
X124100000Y-131096000D01*
%TO.N,/D3*%
X122682000Y-130302000D02*
X124094000Y-130302000D01*
X124094000Y-130302000D02*
X124100000Y-130296000D01*
%TO.N,/D2*%
X125476000Y-130556000D02*
X125476000Y-128932000D01*
X125476000Y-128932000D02*
X125470000Y-128926000D01*
%TO.N,Net-(U1-SQW{slash}~INT)*%
X118553000Y-140589000D02*
X119538000Y-140589000D01*
X119538000Y-140589000D02*
X119863000Y-140914000D01*
X119863000Y-140914000D02*
X119863000Y-144955500D01*
X119863000Y-144955500D02*
X119022500Y-145796000D01*
%TO.N,/Vcc*%
X118553000Y-139319000D02*
X118618000Y-139319000D01*
D26*
%TO.N,GND*%
X127188000Y-145034000D02*
X128910000Y-145034000D01*
D27*
%TO.N,Net-(U4-PB6)*%
X125288000Y-145034000D02*
X125288000Y-142112000D01*
X125288000Y-142112000D02*
X125162000Y-141986000D01*
%TO.N,Net-(U4-PB7)*%
X130810000Y-145034000D02*
X130810000Y-142434000D01*
X130810000Y-142434000D02*
X130362000Y-141986000D01*
X130362000Y-141986000D02*
X128837000Y-140461000D01*
X128837000Y-140461000D02*
X124273396Y-140461000D01*
X124273396Y-140461000D02*
X122624000Y-138811604D01*
X122624000Y-136473396D02*
X123201396Y-135896000D01*
X122624000Y-138811604D02*
X122624000Y-136473396D01*
X123201396Y-135896000D02*
X124100000Y-135896000D01*
%TO.N,Net-(U4-PB6)*%
X125162000Y-141986000D02*
X122174000Y-138998000D01*
X123365000Y-135096000D02*
X124100000Y-135096000D01*
X122174000Y-138998000D02*
X122174000Y-136287000D01*
X122174000Y-136287000D02*
X123365000Y-135096000D01*
%TO.N,Net-(D1-K)*%
X143613500Y-125984000D02*
X143613500Y-125802000D01*
X143613500Y-125802000D02*
X145463500Y-123952000D01*
%TO.N,/SCK*%
X132440000Y-135896000D02*
X133175000Y-135896000D01*
X133175000Y-135896000D02*
X135134198Y-133936802D01*
X135134198Y-133936802D02*
X135134198Y-128524000D01*
X135134198Y-128524000D02*
X135642198Y-128016000D01*
X135642198Y-128016000D02*
X137563496Y-128016000D01*
X142318500Y-125222000D02*
X143588500Y-123952000D01*
X137563496Y-128016000D02*
X139341496Y-126238000D01*
X141019896Y-125222000D02*
X142318500Y-125222000D01*
X139341496Y-126238000D02*
X140003896Y-126238000D01*
X140003896Y-126238000D02*
X141019896Y-125222000D01*
%TO.N,Net-(BT1-+)*%
X141653500Y-123952000D02*
X139884500Y-125721000D01*
X135484396Y-127534000D02*
X134684198Y-128334198D01*
X139884500Y-125721000D02*
X138756000Y-125721000D01*
X138756000Y-125721000D02*
X138239000Y-126238000D01*
X138239000Y-126238000D02*
X138239000Y-126704100D01*
X138239000Y-126704100D02*
X137409100Y-127534000D01*
X137409100Y-127534000D02*
X135484396Y-127534000D01*
X134684198Y-128334198D02*
X134684198Y-133483054D01*
X134684198Y-133483054D02*
X133071252Y-135096000D01*
X133071252Y-135096000D02*
X132440000Y-135096000D01*
%TO.N,Net-(U4-AREF)*%
X137414000Y-125984000D02*
X136314000Y-127084000D01*
X136314000Y-127084000D02*
X135298000Y-127084000D01*
X135298000Y-127084000D02*
X134154000Y-128228000D01*
X134154000Y-128228000D02*
X134154000Y-132532490D01*
X134154000Y-132532490D02*
X133190490Y-133496000D01*
X133190490Y-133496000D02*
X132440000Y-133496000D01*
D26*
%TO.N,GND*%
X135514000Y-125984000D02*
X133604000Y-127894000D01*
X133604000Y-127894000D02*
X133604000Y-132304672D01*
X133604000Y-132304672D02*
X133212672Y-132696000D01*
X133212672Y-132696000D02*
X132440000Y-132696000D01*
D27*
%TO.N,Net-(D2-K)*%
X137310500Y-123952000D02*
X139778500Y-123952000D01*
%TO.N,/Vcc*%
X112478000Y-125349000D02*
X119678000Y-125349000D01*
X112478000Y-126619000D02*
X112478000Y-127889000D01*
X112478000Y-125349000D02*
X112478000Y-126619000D01*
%TO.N,Net-(U1-~{INTA})*%
X113133500Y-145796000D02*
X112243000Y-144905500D01*
X112903000Y-141859000D02*
X113603000Y-141859000D01*
X112243000Y-144905500D02*
X112243000Y-142519000D01*
X112243000Y-142519000D02*
X112903000Y-141859000D01*
%TO.N,/Vcc*%
X114958500Y-145796000D02*
X117197500Y-145796000D01*
%TO.N,Net-(U1-X2)*%
X108712000Y-142046000D02*
X110169000Y-140589000D01*
X110169000Y-140589000D02*
X113603000Y-140589000D01*
%TO.N,Net-(U1-X1)*%
X113603000Y-139319000D02*
X111185000Y-139319000D01*
X111185000Y-139319000D02*
X108712000Y-136846000D01*
%TO.N,/Vcc*%
X112478000Y-132119000D02*
X119678000Y-132119000D01*
X112478000Y-134659000D02*
X111678001Y-134659000D01*
X111678001Y-134659000D02*
X111303000Y-134283999D01*
X111303000Y-134283999D02*
X111303000Y-133017382D01*
X111303000Y-133017382D02*
X112201382Y-132119000D01*
X112201382Y-132119000D02*
X112478000Y-132119000D01*
D26*
%TO.N,GND*%
X112478000Y-135929000D02*
X113277999Y-135929000D01*
X113277999Y-135929000D02*
X113792000Y-135414999D01*
X113792000Y-135414999D02*
X113792000Y-133897000D01*
X113792000Y-133897000D02*
X113284000Y-133389000D01*
X113284000Y-133389000D02*
X112478000Y-133389000D01*
X119678000Y-133389000D02*
X112478000Y-133389000D01*
X119678000Y-133389000D02*
X119785000Y-133496000D01*
X119785000Y-133496000D02*
X124100000Y-133496000D01*
D27*
%TO.N,Net-(BT1-+)*%
X123992000Y-132588000D02*
X124100000Y-132696000D01*
%TD*%
M02*
