M48
; DRILL file {KiCad 8.0.6} date 2025-03-25T13:25:31+0100
; FORMAT={-:-/ absolute / inch / decimal}
; #@! TF.CreationDate,2025-03-25T13:25:31+01:00
; #@! TF.GenerationSoftware,Kicad,Pcbnew,8.0.6
; #@! TF.FileFunction,Plated,1,2,PTH
FMAT,2
INCH
; #@! TA.AperFunction,Plated,PTH,ViaDrill
T1C0.0157
; #@! TA.AperFunction,Plated,PTH,ComponentDrill
T2C0.0394
%
G90
G05
T1
X4.34Y-5.0
X4.4283Y-5.035
X4.4283Y-5.3015
X4.58Y-5.4
X4.65Y-5.07
X4.65Y-5.29
X4.67Y-5.485
X4.7117Y-5.035
X4.7117Y-5.085
X4.7117Y-5.3515
X4.7976Y-5.7124
X4.8Y-5.59
X4.82Y-5.03
X4.82Y-5.08
X4.83Y-5.13
X4.94Y-5.14
X4.94Y-5.46
X4.97Y-5.49
X4.98Y-5.13
X4.98Y-5.17
X5.0Y-5.46
X5.02Y-5.01
X5.02Y-5.2
X5.03Y-5.5
X5.15Y-5.14
X5.16Y-5.2
X5.27Y-4.88
X5.52Y-5.06
X5.59Y-5.06
X5.73Y-5.06
T2
X4.26Y-5.1098
X4.26Y-5.2098
X4.37Y-5.9
X4.47Y-5.9
X4.57Y-5.9
X4.67Y-5.9
X4.77Y-5.9
X4.87Y-5.9
X4.97Y-5.9
X5.07Y-5.9
X5.17Y-5.9
X5.3704Y-5.9
X5.4704Y-5.9
X5.5704Y-5.9
X5.6704Y-5.9
X5.89Y-5.06
X5.89Y-5.16
X5.89Y-5.26
X5.99Y-5.06
X5.99Y-5.16
X5.99Y-5.26
X5.99Y-5.41
X5.99Y-5.51
X5.99Y-5.61
X5.99Y-5.71
M30
